<?xml version="1.0" encoding="UTF-8"?>
<!DOCTYPE svg PUBLIC "-//W3C//DTD SVG 1.1//EN" "http://www.w3.org/Graphics/SVG/1.1/DTD/svg11.dtd">
<!-- Creator: CorelDRAW 2017 -->
<svg xmlns="http://www.w3.org/2000/svg" xml:space="preserve" width="213px" height="339px" version="1.1" style="shape-rendering:geometricPrecision; text-rendering:geometricPrecision; image-rendering:optimizeQuality; fill-rule:evenodd; clip-rule:evenodd"
viewBox="0 0 127.7 203.38"
 xmlns:xlink="http://www.w3.org/1999/xlink">
 <defs>
  <style type="text/css">
   <![CDATA[
    .fil2 {fill:none}
    .fil5 {fill:#1E4099}
    .fil0 {fill:#26CAD3}
    .fil3 {fill:#F6BF00}
    .fil4 {fill:#F6BF00;fill-rule:nonzero}
    .fil1 {fill:#00495A;fill-rule:nonzero;fill-opacity:0.101961}
   ]]>
  </style>
   <clipPath id="id0">
    <path d="M0 203.38l127.7 0 0 -203.38 -127.7 0 0 203.38z"/>
   </clipPath>
    <clipPath id="id1">
     <path d="M127.7 160.12l-127.7 0 0 43.26 127.7 0 0 -43.26z"/>
    </clipPath>
    <clipPath id="id2">
     <path d="M0 203.38l127.7 0 0 -203.38 -127.7 0 0 203.38z"/>
    </clipPath>
 </defs>
 <g id="Capa_x0020_1">
  <metadata id="CorelCorpID_0Corel-Layer"/>
  <g>
  </g>
  <g style="clip-path:url(#id0)">
   <g>
    <polygon class="fil0" points="128.1,160.12 0,160.12 0,203.38 128.1,203.38 "/>
   </g>
   <g style="clip-path:url(#id1)">
    <g id="_2154506295232">
     <g>
      <path id="1" class="fil1" d="M117.73 178.79l4.16 -4.06 -3.04 -2.95 -2.14 2.08 1.52 1.48 0.74 -0.72 -0.8 -0.77 0.53 -0.52 1.53 1.48 -2.08 2.02 -2.92 -2.83c0.17,-0.18 2.59,-2.53 3.52,-3.44l-0.96 -0.93 0 0c-0.9,0.87 -4.59,4.47 -5.94,5.78l2.35 2.28 0.46 -0.44 1.19 1.15 0.74 -0.72 1.14 1.11z"/>
      <path class="fil1" d="M123.73 175.4l2.35 -2.28 -0.46 -0.45 1.19 -1.16 -0.74 -0.71 1.14 -1.12 -4.17 -4.05 -3.04 2.96 2.14 2.08 1.51 -1.48 -0.73 -0.71 -0.8 0.77 -0.53 -0.51 1.52 -1.49 2.08 2.03 -2.91 2.84c-0.18,-0.17 -2.6,-2.53 -3.53,-3.43l-0.96 0.94 0 0c0.9,0.87 4.59,4.46 5.94,5.77z"/>
      <path class="fil1" d="M117.79 169.63l0 0c0.9,-0.88 4.59,-4.47 5.93,-5.79l-2.34 -2.28 -0.46 0.45 -1.19 -1.16 -0.74 0.72 -1.14 -1.11 -4.17 4.06 3.05 2.96 2.13 -2.08 -1.52 -1.48 -0.73 0.71 0.8 0.78 -0.54 0.52 -1.52 -1.48 2.08 -2.03 2.92 2.84c-0.17,0.17 -2.6,2.53 -3.52,3.43l0.96 0.94z"/>
      <path class="fil1" d="M112.54 173.62l3.04 -2.96 -2.14 -2.08 -1.52 1.48 0.74 0.71 0.79 -0.77 0.54 0.52 -1.52 1.48 -2.08 -2.03 2.91 -2.84c0.17,0.17 2.6,2.53 3.53,3.43l0.96 -0.93 0 0c-0.9,-0.88 -4.6,-4.47 -5.94,-5.78l-2.35 2.29 0.46 0.44 -1.19 1.16 0.74 0.72 -1.14 1.11 4.17 4.05z"/>
     </g>
     <g>
      <path class="fil1" d="M117.73 199.43l4.16 -4.06 -3.04 -2.95 -2.14 2.08 1.52 1.47 0.74 -0.71 -0.8 -0.77 0.53 -0.52 1.53 1.48 -2.08 2.02 -2.92 -2.84c0.17,-0.17 2.59,-2.52 3.52,-3.43l-0.96 -0.93 0 0c-0.9,0.87 -4.59,4.47 -5.94,5.78l2.35 2.28 0.46 -0.44 1.19 1.15 0.74 -0.72 1.14 1.11z"/>
      <path class="fil1" d="M123.73 196.04l2.35 -2.28 -0.46 -0.45 1.19 -1.16 -0.74 -0.72 1.14 -1.11 -4.17 -4.05 -3.04 2.96 2.14 2.08 1.51 -1.48 -0.73 -0.71 -0.8 0.77 -0.53 -0.51 1.52 -1.49 2.08 2.03 -2.91 2.84c-0.18,-0.17 -2.6,-2.53 -3.53,-3.43l-0.96 0.94 0 0c0.9,0.87 4.59,4.46 5.94,5.77z"/>
      <path class="fil1" d="M117.79 190.27l0 0c0.9,-0.88 4.59,-4.48 5.93,-5.79l-2.34 -2.28 -0.46 0.45 -1.19 -1.16 -0.74 0.72 -1.14 -1.11 -4.17 4.06 3.05 2.96 2.13 -2.08 -1.52 -1.48 -0.73 0.71 0.8 0.78 -0.54 0.52 -1.52 -1.48 2.08 -2.03 2.92 2.84c-0.17,0.17 -2.6,2.53 -3.52,3.43l0.96 0.94z"/>
      <path class="fil1" d="M112.54 194.26l3.04 -2.96 -2.14 -2.08 -1.52 1.48 0.74 0.71 0.79 -0.77 0.54 0.52 -1.52 1.48 -2.08 -2.03 2.91 -2.84c0.17,0.17 2.6,2.53 3.53,3.43l0.96 -0.93 0 0c-0.9,-0.88 -4.6,-4.47 -5.94,-5.78l-2.35 2.29 0.46 0.44 -1.19 1.16 0.74 0.72 -1.14 1.11 4.17 4.05z"/>
     </g>
     <g>
      <path class="fil1" d="M117.73 220.04l4.16 -4.06 -3.04 -2.95 -2.14 2.08 1.52 1.48 0.74 -0.72 -0.8 -0.77 0.53 -0.52 1.53 1.48 -2.08 2.02 -2.92 -2.83c0.17,-0.17 2.59,-2.53 3.52,-3.44l-0.96 -0.93 0 0c-0.9,0.88 -4.59,4.47 -5.94,5.78l2.35 2.28 0.46 -0.44 1.19 1.16 0.74 -0.72 1.14 1.1z"/>
      <path class="fil1" d="M123.73 216.65l2.35 -2.28 -0.46 -0.45 1.19 -1.16 -0.74 -0.71 1.14 -1.11 -4.17 -4.06 -3.04 2.96 2.14 2.08 1.51 -1.48 -0.73 -0.71 -0.8 0.78 -0.53 -0.52 1.52 -1.48 2.08 2.02 -2.91 2.84c-0.18,-0.17 -2.6,-2.53 -3.53,-3.43l-0.96 0.94 0 0c0.9,0.87 4.59,4.46 5.94,5.77z"/>
      <path class="fil1" d="M117.79 210.88l0 0c0.9,-0.88 4.59,-4.47 5.93,-5.79l-2.34 -2.28 -0.46 0.45 -1.19 -1.16 -0.74 0.72 -1.14 -1.11 -4.17 4.06 3.05 2.96 2.13 -2.08 -1.52 -1.48 -0.73 0.71 0.8 0.78 -0.54 0.52 -1.52 -1.48 2.08 -2.03 2.92 2.84c-0.17,0.17 -2.6,2.53 -3.52,3.43l0.96 0.94z"/>
      <path class="fil1" d="M112.54 214.87l3.04 -2.96 -2.14 -2.08 -1.52 1.48 0.74 0.71 0.79 -0.77 0.54 0.52 -1.52 1.48 -2.08 -2.02 2.91 -2.85c0.17,0.17 2.6,2.53 3.53,3.43l0.96 -0.93 0 0c-0.9,-0.88 -4.6,-4.47 -5.94,-5.78l-2.35 2.29 0.46 0.44 -1.19 1.16 0.74 0.72 -1.14 1.11 4.17 4.05z"/>
     </g>
     <g>
      <path class="fil1" d="M97.04 209.98l4.17 -4.06 -3.04 -2.96 -2.14 2.09 1.52 1.47 0.73 -0.71 -0.79 -0.77 0.53 -0.52 1.52 1.48 -2.08 2.02 -2.92 -2.84c0.18,-0.17 2.6,-2.52 3.53,-3.43l-0.97 -0.93 0 0c-0.9,0.87 -4.58,4.47 -5.93,5.78l2.35 2.28 0.46 -0.44 1.19 1.15 0.73 -0.72 1.14 1.11z"/>
      <path class="fil1" d="M103.05 206.59l2.34 -2.28 -0.45 -0.45 1.18 -1.16 -0.74 -0.72 1.14 -1.11 -4.17 -4.05 -3.04 2.96 2.14 2.08 1.52 -1.48 -0.73 -0.71 -0.8 0.77 -0.53 -0.52 1.52 -1.48 2.08 2.03 -2.92 2.84c-0.17,-0.17 -2.6,-2.53 -3.52,-3.43l-0.97 0.94 0 0c0.91,0.87 4.6,4.46 5.95,5.77z"/>
      <path class="fil1" d="M97.1 200.82l0 0c0.91,-0.88 4.59,-4.48 5.94,-5.79l-2.35 -2.28 -0.46 0.45 -1.19 -1.16 -0.74 0.72 -1.14 -1.11 -4.16 4.06 3.04 2.96 2.14 -2.09 -1.52 -1.47 -0.73 0.71 0.79 0.77 -0.53 0.53 -1.52 -1.48 2.08 -2.03 2.92 2.84c-0.18,0.17 -2.6,2.53 -3.53,3.43l0.96 0.94z"/>
      <path class="fil1" d="M91.86 204.81l3.04 -2.96 -2.14 -2.08 -1.52 1.48 0.73 0.71 0.8 -0.77 0.53 0.52 -1.52 1.48 -2.08 -2.03 2.92 -2.84c0.17,0.17 2.59,2.53 3.52,3.43l0.96 -0.93 0 0c-0.9,-0.88 -4.59,-4.47 -5.94,-5.78l-2.34 2.29 0.45 0.44 -1.18 1.16 0.73 0.72 -1.13 1.11 4.17 4.05z"/>
     </g>
     <g>
      <path class="fil1" d="M97.04 189.33l4.17 -4.06 -3.04 -2.96 -2.14 2.09 1.52 1.47 0.73 -0.71 -0.79 -0.77 0.53 -0.52 1.52 1.48 -2.08 2.02 -2.92 -2.84c0.18,-0.17 2.6,-2.53 3.53,-3.43l-0.97 -0.93 0 0c-0.9,0.87 -4.58,4.47 -5.93,5.78l2.35 2.28 0.46 -0.44 1.19 1.15 0.73 -0.72 1.14 1.11z"/>
      <path class="fil1" d="M103.05 185.94l2.34 -2.28 -0.45 -0.45 1.18 -1.16 -0.74 -0.72 1.14 -1.11 -4.17 -4.05 -3.04 2.96 2.14 2.08 1.52 -1.48 -0.73 -0.71 -0.8 0.77 -0.53 -0.52 1.52 -1.48 2.08 2.03 -2.92 2.84c-0.17,-0.17 -2.6,-2.53 -3.52,-3.43l-0.97 0.94 0 0c0.91,0.87 4.6,4.46 5.95,5.77z"/>
      <path class="fil1" d="M97.1 180.17l0 0c0.91,-0.88 4.59,-4.48 5.94,-5.79l-2.35 -2.28 -0.46 0.45 -1.19 -1.16 -0.74 0.72 -1.14 -1.11 -4.16 4.06 3.04 2.96 2.14 -2.09 -1.52 -1.47 -0.73 0.71 0.79 0.77 -0.53 0.52 -1.52 -1.47 2.08 -2.03 2.92 2.84c-0.18,0.17 -2.6,2.53 -3.53,3.43l0.96 0.94z"/>
      <path class="fil1" d="M91.86 184.16l3.04 -2.96 -2.14 -2.08 -1.52 1.48 0.73 0.71 0.8 -0.77 0.53 0.52 -1.52 1.48 -2.08 -2.03 2.92 -2.84c0.17,0.17 2.59,2.53 3.52,3.43l0.96 -0.93 0 0c-0.9,-0.88 -4.59,-4.47 -5.94,-5.78l-2.34 2.28 0.45 0.45 -1.18 1.16 0.73 0.72 -1.13 1.11 4.17 4.05z"/>
     </g>
     <g>
      <path class="fil1" d="M97.04 168.7l4.17 -4.06 -3.04 -2.95 -2.14 2.08 1.52 1.48 0.73 -0.72 -0.79 -0.77 0.53 -0.52 1.52 1.48 -2.08 2.02 -2.92 -2.84c0.18,-0.17 2.6,-2.52 3.53,-3.43l-0.97 -0.93 0 0c-0.9,0.87 -4.58,4.47 -5.93,5.78l2.35 2.28 0.46 -0.44 1.19 1.15 0.73 -0.72 1.14 1.11z"/>
      <path class="fil1" d="M103.05 165.31l2.34 -2.28 -0.45 -0.45 1.18 -1.16 -0.74 -0.72 1.14 -1.11 -4.17 -4.05 -3.04 2.96 2.14 2.08 1.52 -1.48 -0.73 -0.71 -0.8 0.77 -0.53 -0.51 1.52 -1.49 2.08 2.03 -2.92 2.84c-0.17,-0.17 -2.6,-2.53 -3.52,-3.43l-0.97 0.94 0 0c0.91,0.87 4.6,4.46 5.95,5.77z"/>
      <path class="fil1" d="M97.1 159.54l0 0c0.91,-0.88 4.59,-4.48 5.94,-5.79l-2.35 -2.28 -0.46 0.45 -1.19 -1.16 -0.74 0.72 -1.14 -1.11 -4.16 4.06 3.04 2.96 2.14 -2.08 -1.52 -1.48 -0.73 0.71 0.79 0.78 -0.53 0.52 -1.52 -1.48 2.08 -2.03 2.92 2.84c-0.18,0.17 -2.6,2.53 -3.53,3.43l0.96 0.94z"/>
      <path class="fil1" d="M91.86 163.53l3.04 -2.96 -2.14 -2.08 -1.52 1.48 0.73 0.71 0.8 -0.77 0.53 0.52 -1.52 1.48 -2.08 -2.03 2.92 -2.84c0.17,0.17 2.59,2.53 3.52,3.43l0.96 -0.93 0 0c-0.9,-0.88 -4.59,-4.47 -5.94,-5.78l-2.34 2.29 0.45 0.44 -1.18 1.16 0.73 0.72 -1.13 1.11 4.17 4.05z"/>
     </g>
     <g>
      <path class="fil1" d="M97.04 148.1l4.17 -4.06 -3.04 -2.95 -2.14 2.08 1.52 1.48 0.73 -0.72 -0.79 -0.77 0.53 -0.52 1.52 1.48 -2.08 2.02 -2.92 -2.83c0.18,-0.17 2.6,-2.53 3.53,-3.44l-0.97 -0.93 0 0c-0.9,0.88 -4.58,4.47 -5.93,5.78l2.35 2.28 0.46 -0.44 1.19 1.16 0.73 -0.72 1.14 1.1z"/>
      <path class="fil1" d="M103.05 144.71l2.34 -2.28 -0.45 -0.45 1.18 -1.16 -0.74 -0.71 1.14 -1.11 -4.17 -4.06 -3.04 2.96 2.14 2.08 1.52 -1.48 -0.73 -0.71 -0.8 0.78 -0.53 -0.52 1.52 -1.48 2.08 2.02 -2.92 2.84c-0.17,-0.17 -2.6,-2.53 -3.52,-3.43l-0.97 0.94 0 0c0.91,0.87 4.6,4.46 5.95,5.77z"/>
      <path class="fil1" d="M97.1 138.94l0 0c0.91,-0.88 4.59,-4.47 5.94,-5.79l-2.35 -2.28 -0.46 0.45 -1.19 -1.16 -0.74 0.72 -1.14 -1.11 -4.16 4.06 3.04 2.96 2.14 -2.08 -1.52 -1.48 -0.73 0.71 0.79 0.78 -0.53 0.52 -1.52 -1.48 2.08 -2.03 2.92 2.84c-0.18,0.17 -2.6,2.53 -3.53,3.43l0.96 0.94z"/>
      <path class="fil1" d="M91.86 142.93l3.04 -2.96 -2.14 -2.08 -1.52 1.48 0.73 0.71 0.8 -0.77 0.53 0.52 -1.52 1.48 -2.08 -2.02 2.92 -2.85c0.17,0.17 2.59,2.53 3.52,3.43l0.96 -0.93 0 0c-0.9,-0.88 -4.59,-4.47 -5.94,-5.78l-2.34 2.29 0.45 0.44 -1.18 1.16 0.73 0.72 -1.13 1.11 4.17 4.05z"/>
     </g>
     <g>
      <path class="fil1" d="M117.73 158.11l4.16 -4.06 -3.04 -2.96 -2.14 2.09 1.52 1.47 0.74 -0.71 -0.8 -0.77 0.53 -0.52 1.53 1.47 -2.08 2.03 -2.92 -2.84c0.17,-0.17 2.59,-2.53 3.52,-3.43l-0.96 -0.94 0 0c-0.9,0.88 -4.59,4.48 -5.94,5.79l2.35 2.28 0.46 -0.44 1.19 1.15 0.74 -0.72 1.14 1.11z"/>
      <path class="fil1" d="M123.73 154.72l2.35 -2.28 -0.46 -0.45 1.19 -1.16 -0.74 -0.72 1.14 -1.11 -4.17 -4.05 -3.04 2.96 2.14 2.08 1.51 -1.48 -0.73 -0.71 -0.8 0.77 -0.53 -0.52 1.52 -1.48 2.08 2.03 -2.91 2.84c-0.18,-0.17 -2.6,-2.53 -3.53,-3.43l-0.96 0.93 0 0c0.9,0.88 4.59,4.47 5.94,5.78z"/>
      <path class="fil1" d="M117.79 148.94l0 0c0.9,-0.87 4.59,-4.47 5.93,-5.78l-2.34 -2.28 -0.46 0.44 -1.19 -1.15 -0.74 0.72 -1.14 -1.11 -4.17 4.06 3.05 2.96 2.13 -2.09 -1.52 -1.47 -0.73 0.71 0.8 0.77 -0.54 0.52 -1.52 -1.48 2.08 -2.02 2.92 2.84c-0.17,0.17 -2.6,2.53 -3.52,3.43l0.96 0.93z"/>
      <path class="fil1" d="M112.54 152.94l3.04 -2.96 -2.14 -2.08 -1.52 1.48 0.74 0.71 0.79 -0.77 0.54 0.52 -1.52 1.48 -2.08 -2.03 2.91 -2.84c0.17,0.17 2.6,2.53 3.53,3.43l0.96 -0.94 0 0c-0.9,-0.87 -4.6,-4.46 -5.94,-5.77l-2.35 2.28 0.46 0.45 -1.19 1.16 0.74 0.72 -1.14 1.11 4.17 4.05z"/>
     </g>
     <g>
      <path class="fil1" d="M139.44 209.98l4.16 -4.06 -3.04 -2.96 -2.14 2.09 1.52 1.47 0.74 -0.71 -0.8 -0.77 0.53 -0.52 1.52 1.48 -2.08 2.02 -2.91 -2.84c0.17,-0.17 2.59,-2.52 3.52,-3.43l-0.96 -0.93 0 0c-0.9,0.87 -4.59,4.47 -5.94,5.78l2.35 2.28 0.46 -0.44 1.19 1.15 0.74 -0.72 1.14 1.11z"/>
      <path class="fil1" d="M145.44 206.59l2.34 -2.28 -0.45 -0.45 1.19 -1.16 -0.74 -0.72 1.14 -1.11 -4.18 -4.05 -3.04 2.96 2.14 2.08 1.52 -1.48 -0.73 -0.71 -0.8 0.77 -0.53 -0.52 1.52 -1.48 2.08 2.03 -2.91 2.84c-0.18,-0.17 -2.6,-2.53 -3.53,-3.43l-0.96 0.94 0 0c0.9,0.87 4.59,4.46 5.94,5.77z"/>
      <path class="fil1" d="M139.5 200.82l0 0c0.9,-0.88 4.59,-4.48 5.93,-5.79l-2.35 -2.28 -0.45 0.45 -1.19 -1.16 -0.74 0.72 -1.14 -1.11 -4.17 4.06 3.05 2.96 2.13 -2.09 -1.52 -1.47 -0.73 0.71 0.79 0.77 -0.53 0.53 -1.52 -1.48 2.08 -2.03 2.92 2.84c-0.18,0.17 -2.6,2.53 -3.52,3.43l0.96 0.94z"/>
      <path class="fil1" d="M134.25 204.81l3.04 -2.96 -2.14 -2.08 -1.52 1.48 0.73 0.71 0.8 -0.77 0.54 0.52 -1.53 1.48 -2.08 -2.03 2.92 -2.84c0.17,0.17 2.6,2.53 3.53,3.43l0.96 -0.93 0 0c-0.91,-0.88 -4.6,-4.47 -5.95,-5.78l-2.34 2.29 0.46 0.44 -1.19 1.16 0.74 0.72 -1.14 1.11 4.17 4.05z"/>
     </g>
     <g>
      <path class="fil1" d="M139.44 189.33l4.16 -4.06 -3.04 -2.96 -2.14 2.09 1.52 1.47 0.74 -0.71 -0.8 -0.77 0.53 -0.52 1.52 1.48 -2.08 2.02 -2.91 -2.84c0.17,-0.17 2.59,-2.53 3.52,-3.43l-0.96 -0.93 0 0c-0.9,0.87 -4.59,4.47 -5.94,5.78l2.35 2.28 0.46 -0.44 1.19 1.15 0.74 -0.72 1.14 1.11z"/>
      <path class="fil1" d="M145.44 185.94l2.34 -2.28 -0.45 -0.45 1.19 -1.16 -0.74 -0.72 1.14 -1.11 -4.18 -4.05 -3.04 2.96 2.14 2.08 1.52 -1.48 -0.73 -0.71 -0.8 0.77 -0.53 -0.52 1.52 -1.48 2.08 2.03 -2.91 2.84c-0.18,-0.17 -2.6,-2.53 -3.53,-3.43l-0.96 0.94 0 0c0.9,0.87 4.59,4.46 5.94,5.77z"/>
      <path class="fil1" d="M139.5 180.17l0 0c0.9,-0.88 4.59,-4.48 5.93,-5.79l-2.35 -2.28 -0.45 0.45 -1.19 -1.16 -0.74 0.72 -1.14 -1.11 -4.17 4.06 3.05 2.96 2.13 -2.09 -1.52 -1.47 -0.73 0.71 0.79 0.77 -0.53 0.52 -1.52 -1.47 2.08 -2.03 2.92 2.84c-0.18,0.17 -2.6,2.53 -3.52,3.43l0.96 0.94z"/>
      <path class="fil1" d="M134.25 184.16l3.04 -2.96 -2.14 -2.08 -1.52 1.48 0.73 0.71 0.8 -0.77 0.54 0.52 -1.53 1.48 -2.08 -2.03 2.92 -2.84c0.17,0.17 2.6,2.53 3.53,3.43l0.96 -0.93 0 0c-0.91,-0.88 -4.6,-4.47 -5.95,-5.78l-2.34 2.28 0.46 0.45 -1.19 1.16 0.74 0.72 -1.14 1.11 4.17 4.05z"/>
     </g>
     <g>
      <path class="fil1" d="M139.44 168.7l4.16 -4.06 -3.04 -2.95 -2.14 2.08 1.52 1.48 0.74 -0.72 -0.8 -0.77 0.53 -0.52 1.52 1.48 -2.08 2.02 -2.91 -2.84c0.17,-0.17 2.59,-2.52 3.52,-3.43l-0.96 -0.93 0 0c-0.9,0.87 -4.59,4.47 -5.94,5.78l2.35 2.28 0.46 -0.44 1.19 1.15 0.74 -0.72 1.14 1.11z"/>
      <path class="fil1" d="M145.44 165.31l2.34 -2.28 -0.45 -0.45 1.19 -1.16 -0.74 -0.72 1.14 -1.11 -4.18 -4.05 -3.04 2.96 2.14 2.08 1.52 -1.48 -0.73 -0.71 -0.8 0.77 -0.53 -0.51 1.52 -1.49 2.08 2.03 -2.91 2.84c-0.18,-0.17 -2.6,-2.53 -3.53,-3.43l-0.96 0.94 0 0c0.9,0.87 4.59,4.46 5.94,5.77z"/>
      <path class="fil1" d="M139.5 159.54l0 0c0.9,-0.88 4.59,-4.48 5.93,-5.79l-2.35 -2.28 -0.45 0.45 -1.19 -1.16 -0.74 0.72 -1.14 -1.11 -4.17 4.06 3.05 2.96 2.13 -2.08 -1.52 -1.48 -0.73 0.71 0.79 0.78 -0.53 0.52 -1.52 -1.48 2.08 -2.03 2.92 2.84c-0.18,0.17 -2.6,2.53 -3.52,3.43l0.96 0.94z"/>
      <path class="fil1" d="M134.25 163.53l3.04 -2.96 -2.14 -2.08 -1.52 1.48 0.73 0.71 0.8 -0.77 0.54 0.52 -1.53 1.48 -2.08 -2.03 2.92 -2.84c0.17,0.17 2.6,2.53 3.53,3.43l0.96 -0.93 0 0c-0.91,-0.88 -4.6,-4.47 -5.95,-5.78l-2.34 2.29 0.46 0.44 -1.19 1.16 0.74 0.72 -1.14 1.11 4.17 4.05z"/>
     </g>
     <g>
      <path class="fil1" d="M139.44 148.1l4.16 -4.06 -3.04 -2.95 -2.14 2.08 1.52 1.48 0.74 -0.72 -0.8 -0.77 0.53 -0.52 1.52 1.48 -2.08 2.02 -2.91 -2.83c0.17,-0.17 2.59,-2.53 3.52,-3.44l-0.96 -0.93 0 0c-0.9,0.88 -4.59,4.47 -5.94,5.78l2.35 2.28 0.46 -0.44 1.19 1.16 0.74 -0.72 1.14 1.1z"/>
      <path class="fil1" d="M145.44 144.71l2.34 -2.28 -0.45 -0.45 1.19 -1.16 -0.74 -0.71 1.14 -1.11 -4.18 -4.06 -3.04 2.96 2.14 2.08 1.52 -1.48 -0.73 -0.71 -0.8 0.78 -0.53 -0.52 1.52 -1.48 2.08 2.02 -2.91 2.84c-0.18,-0.17 -2.6,-2.53 -3.53,-3.43l-0.96 0.94 0 0c0.9,0.87 4.59,4.46 5.94,5.77z"/>
      <path class="fil1" d="M139.5 138.94l0 0c0.9,-0.88 4.59,-4.47 5.93,-5.79l-2.35 -2.28 -0.45 0.45 -1.19 -1.16 -0.74 0.72 -1.14 -1.11 -4.17 4.06 3.05 2.96 2.13 -2.08 -1.52 -1.48 -0.73 0.71 0.79 0.78 -0.53 0.52 -1.52 -1.48 2.08 -2.03 2.92 2.84c-0.18,0.17 -2.6,2.53 -3.52,3.43l0.96 0.94z"/>
      <path class="fil1" d="M134.25 142.93l3.04 -2.96 -2.14 -2.08 -1.52 1.48 0.73 0.71 0.8 -0.77 0.54 0.52 -1.53 1.48 -2.08 -2.02 2.92 -2.85c0.17,0.17 2.6,2.53 3.53,3.43l0.96 -0.93 0 0c-0.91,-0.88 -4.6,-4.47 -5.95,-5.78l-2.34 2.29 0.46 0.44 -1.19 1.16 0.74 0.72 -1.14 1.11 4.17 4.05z"/>
     </g>
     <g>
      <path class="fil1" d="M75.32 178.79l4.16 -4.06 -3.04 -2.95 -2.14 2.08 1.52 1.48 0.73 -0.72 -0.79 -0.77 0.53 -0.52 1.52 1.48 -2.08 2.02 -2.92 -2.83c0.18,-0.18 2.6,-2.53 3.53,-3.44l-0.97 -0.93 0 0c-0.9,0.87 -4.58,4.47 -5.93,5.78l2.35 2.28 0.46 -0.44 1.19 1.15 0.73 -0.72 1.15 1.11z"/>
      <path class="fil1" d="M81.32 175.4l2.34 -2.28 -0.46 -0.45 1.19 -1.16 -0.74 -0.71 1.14 -1.12 -4.17 -4.05 -3.04 2.96 2.14 2.08 1.52 -1.48 -0.73 -0.71 -0.8 0.77 -0.53 -0.51 1.52 -1.49 2.08 2.03 -2.92 2.84c-0.17,-0.17 -2.6,-2.53 -3.52,-3.43l-0.97 0.94 0 0c0.91,0.87 4.6,4.46 5.95,5.77z"/>
      <path class="fil1" d="M75.37 169.63l0 0c0.91,-0.88 4.59,-4.47 5.94,-5.79l-2.35 -2.28 -0.46 0.45 -1.19 -1.16 -0.74 0.72 -1.14 -1.11 -4.16 4.06 3.04 2.96 2.14 -2.08 -1.52 -1.48 -0.73 0.71 0.79 0.78 -0.53 0.52 -1.52 -1.48 2.08 -2.03 2.92 2.84c-0.18,0.17 -2.6,2.53 -3.53,3.43l0.96 0.94z"/>
      <path class="fil1" d="M70.13 173.62l3.04 -2.96 -2.14 -2.08 -1.52 1.48 0.73 0.71 0.8 -0.77 0.53 0.52 -1.52 1.48 -2.08 -2.03 2.92 -2.84c0.17,0.17 2.6,2.53 3.52,3.43l0.96 -0.93 0 0c-0.9,-0.88 -4.59,-4.47 -5.94,-5.78l-2.34 2.29 0.45 0.44 -1.18 1.16 0.74 0.72 -1.14 1.11 4.17 4.05z"/>
     </g>
     <g>
      <path class="fil1" d="M75.32 199.43l4.16 -4.06 -3.04 -2.95 -2.14 2.08 1.52 1.47 0.73 -0.71 -0.79 -0.77 0.53 -0.52 1.52 1.48 -2.08 2.02 -2.92 -2.84c0.18,-0.17 2.6,-2.52 3.53,-3.43l-0.97 -0.93 0 0c-0.9,0.87 -4.58,4.47 -5.93,5.78l2.35 2.28 0.46 -0.44 1.19 1.15 0.73 -0.72 1.15 1.11z"/>
      <path class="fil1" d="M81.32 196.04l2.34 -2.28 -0.46 -0.45 1.19 -1.16 -0.74 -0.72 1.14 -1.11 -4.17 -4.05 -3.04 2.96 2.14 2.08 1.52 -1.48 -0.73 -0.71 -0.8 0.77 -0.53 -0.51 1.52 -1.49 2.08 2.03 -2.92 2.84c-0.17,-0.17 -2.6,-2.53 -3.52,-3.43l-0.97 0.94 0 0c0.91,0.87 4.6,4.46 5.95,5.77z"/>
      <path class="fil1" d="M75.37 190.27l0 0c0.91,-0.88 4.59,-4.48 5.94,-5.79l-2.35 -2.28 -0.46 0.45 -1.19 -1.16 -0.74 0.72 -1.14 -1.11 -4.16 4.06 3.04 2.96 2.14 -2.08 -1.52 -1.48 -0.73 0.71 0.79 0.78 -0.53 0.52 -1.52 -1.48 2.08 -2.03 2.92 2.84c-0.18,0.17 -2.6,2.53 -3.53,3.43l0.96 0.94z"/>
      <path class="fil1" d="M70.13 194.26l3.04 -2.96 -2.14 -2.08 -1.52 1.48 0.73 0.71 0.8 -0.77 0.53 0.52 -1.52 1.48 -2.08 -2.03 2.92 -2.84c0.17,0.17 2.6,2.53 3.52,3.43l0.96 -0.93 0 0c-0.9,-0.88 -4.59,-4.47 -5.94,-5.78l-2.34 2.29 0.45 0.44 -1.18 1.16 0.74 0.72 -1.14 1.11 4.17 4.05z"/>
     </g>
     <g>
      <path class="fil1" d="M75.32 220.04l4.16 -4.06 -3.04 -2.95 -2.14 2.08 1.52 1.48 0.73 -0.72 -0.79 -0.77 0.53 -0.52 1.52 1.48 -2.08 2.02 -2.92 -2.83c0.18,-0.17 2.6,-2.53 3.53,-3.44l-0.97 -0.93 0 0c-0.9,0.88 -4.58,4.47 -5.93,5.78l2.35 2.28 0.46 -0.44 1.19 1.16 0.73 -0.72 1.15 1.1z"/>
      <path class="fil1" d="M81.32 216.65l2.34 -2.28 -0.46 -0.45 1.19 -1.16 -0.74 -0.71 1.14 -1.11 -4.17 -4.06 -3.04 2.96 2.14 2.08 1.52 -1.48 -0.73 -0.71 -0.8 0.78 -0.53 -0.52 1.52 -1.48 2.08 2.02 -2.92 2.84c-0.17,-0.17 -2.6,-2.53 -3.52,-3.43l-0.97 0.94 0 0c0.91,0.87 4.6,4.46 5.95,5.77z"/>
      <path class="fil1" d="M75.37 210.88l0 0c0.91,-0.88 4.59,-4.47 5.94,-5.79l-2.35 -2.28 -0.46 0.45 -1.19 -1.16 -0.74 0.72 -1.14 -1.11 -4.16 4.06 3.04 2.96 2.14 -2.08 -1.52 -1.48 -0.73 0.71 0.79 0.78 -0.53 0.52 -1.52 -1.48 2.08 -2.03 2.92 2.84c-0.18,0.17 -2.6,2.53 -3.53,3.43l0.96 0.94z"/>
      <path class="fil1" d="M70.13 214.87l3.04 -2.96 -2.14 -2.08 -1.52 1.48 0.73 0.71 0.8 -0.77 0.53 0.52 -1.52 1.48 -2.08 -2.02 2.92 -2.85c0.17,0.17 2.6,2.53 3.52,3.43l0.96 -0.93 0 0c-0.9,-0.88 -4.59,-4.47 -5.94,-5.78l-2.34 2.29 0.45 0.44 -1.18 1.16 0.74 0.72 -1.14 1.11 4.17 4.05z"/>
     </g>
     <g>
      <path class="fil1" d="M75.32 158.11l4.16 -4.06 -3.04 -2.96 -2.14 2.09 1.52 1.47 0.73 -0.71 -0.79 -0.77 0.53 -0.52 1.52 1.47 -2.08 2.03 -2.92 -2.84c0.18,-0.17 2.6,-2.53 3.53,-3.43l-0.97 -0.94 0 0c-0.9,0.88 -4.58,4.48 -5.93,5.79l2.35 2.28 0.46 -0.44 1.19 1.15 0.73 -0.72 1.15 1.11z"/>
      <path class="fil1" d="M81.32 154.72l2.34 -2.28 -0.46 -0.45 1.19 -1.16 -0.74 -0.72 1.14 -1.11 -4.17 -4.05 -3.04 2.96 2.14 2.08 1.52 -1.48 -0.73 -0.71 -0.8 0.77 -0.53 -0.52 1.52 -1.48 2.08 2.03 -2.92 2.84c-0.17,-0.17 -2.6,-2.53 -3.52,-3.43l-0.97 0.93 0 0c0.91,0.88 4.6,4.47 5.95,5.78z"/>
      <path class="fil1" d="M75.37 148.94l0 0c0.91,-0.87 4.59,-4.47 5.94,-5.78l-2.35 -2.28 -0.46 0.44 -1.19 -1.15 -0.74 0.72 -1.14 -1.11 -4.16 4.06 3.04 2.96 2.14 -2.09 -1.52 -1.47 -0.73 0.71 0.79 0.77 -0.53 0.52 -1.52 -1.48 2.08 -2.02 2.92 2.84c-0.18,0.17 -2.6,2.53 -3.53,3.43l0.96 0.93z"/>
      <path class="fil1" d="M70.13 152.94l3.04 -2.96 -2.14 -2.08 -1.52 1.48 0.73 0.71 0.8 -0.77 0.53 0.52 -1.52 1.48 -2.08 -2.03 2.92 -2.84c0.17,0.17 2.6,2.53 3.52,3.43l0.96 -0.94 0 0c-0.9,-0.87 -4.59,-4.46 -5.94,-5.77l-2.34 2.28 0.45 0.45 -1.18 1.16 0.74 0.72 -1.14 1.11 4.17 4.05z"/>
     </g>
     <g>
      <path class="fil1" d="M53.17 209.98l4.16 -4.06 -3.04 -2.96 -2.14 2.09 1.52 1.47 0.73 -0.71 -0.79 -0.77 0.53 -0.52 1.52 1.48 -2.08 2.02 -2.92 -2.84c0.18,-0.17 2.6,-2.52 3.53,-3.43l-0.97 -0.93 0 0c-0.9,0.87 -4.58,4.47 -5.93,5.78l2.35 2.28 0.46 -0.44 1.19 1.15 0.73 -0.72 1.15 1.11z"/>
      <path class="fil1" d="M59.17 206.59l2.34 -2.28 -0.45 -0.45 1.18 -1.16 -0.74 -0.72 1.14 -1.11 -4.17 -4.05 -3.04 2.96 2.14 2.08 1.52 -1.48 -0.73 -0.71 -0.8 0.77 -0.53 -0.52 1.52 -1.48 2.08 2.03 -2.92 2.84c-0.17,-0.17 -2.6,-2.53 -3.52,-3.43l-0.97 0.94 0 0c0.91,0.87 4.6,4.46 5.95,5.77z"/>
      <path class="fil1" d="M53.22 200.82l0 0c0.91,-0.88 4.59,-4.48 5.94,-5.79l-2.35 -2.28 -0.45 0.45 -1.2 -1.16 -0.73 0.72 -1.14 -1.11 -4.17 4.06 3.04 2.96 2.14 -2.09 -1.52 -1.47 -0.73 0.71 0.79 0.77 -0.53 0.53 -1.52 -1.48 2.08 -2.03 2.92 2.84c-0.18,0.17 -2.6,2.53 -3.53,3.43l0.96 0.94z"/>
      <path class="fil1" d="M47.98 204.81l3.04 -2.96 -2.14 -2.08 -1.52 1.48 0.73 0.71 0.8 -0.77 0.53 0.52 -1.52 1.48 -2.08 -2.03 2.92 -2.84c0.17,0.17 2.6,2.53 3.52,3.43l0.96 -0.93 0 0c-0.9,-0.88 -4.59,-4.47 -5.94,-5.78l-2.34 2.29 0.45 0.44 -1.18 1.16 0.74 0.72 -1.14 1.11 4.17 4.05z"/>
     </g>
     <g>
      <path class="fil1" d="M53.17 189.33l4.16 -4.06 -3.04 -2.96 -2.14 2.09 1.52 1.47 0.73 -0.71 -0.79 -0.77 0.53 -0.52 1.52 1.48 -2.08 2.02 -2.92 -2.84c0.18,-0.17 2.6,-2.53 3.53,-3.43l-0.97 -0.93 0 0c-0.9,0.87 -4.58,4.47 -5.93,5.78l2.35 2.28 0.46 -0.44 1.19 1.15 0.73 -0.72 1.15 1.11z"/>
      <path class="fil1" d="M59.17 185.94l2.34 -2.28 -0.45 -0.45 1.18 -1.16 -0.74 -0.72 1.14 -1.11 -4.17 -4.05 -3.04 2.96 2.14 2.08 1.52 -1.48 -0.73 -0.71 -0.8 0.77 -0.53 -0.52 1.52 -1.48 2.08 2.03 -2.92 2.84c-0.17,-0.17 -2.6,-2.53 -3.52,-3.43l-0.97 0.94 0 0c0.91,0.87 4.6,4.46 5.95,5.77z"/>
      <path class="fil1" d="M53.22 180.17l0 0c0.91,-0.88 4.59,-4.48 5.94,-5.79l-2.35 -2.28 -0.45 0.45 -1.2 -1.16 -0.73 0.72 -1.14 -1.11 -4.17 4.06 3.04 2.96 2.14 -2.09 -1.52 -1.47 -0.73 0.71 0.79 0.77 -0.53 0.52 -1.52 -1.47 2.08 -2.03 2.92 2.84c-0.18,0.17 -2.6,2.53 -3.53,3.43l0.96 0.94z"/>
      <path class="fil1" d="M47.98 184.16l3.04 -2.96 -2.14 -2.08 -1.52 1.48 0.73 0.71 0.8 -0.77 0.53 0.52 -1.52 1.48 -2.08 -2.03 2.92 -2.84c0.17,0.17 2.6,2.53 3.52,3.43l0.96 -0.93 0 0c-0.9,-0.88 -4.59,-4.47 -5.94,-5.78l-2.34 2.28 0.45 0.45 -1.18 1.16 0.74 0.72 -1.14 1.11 4.17 4.05z"/>
     </g>
     <g>
      <path class="fil1" d="M53.17 168.7l4.16 -4.06 -3.04 -2.95 -2.14 2.08 1.52 1.48 0.73 -0.72 -0.79 -0.77 0.53 -0.52 1.52 1.48 -2.08 2.02 -2.92 -2.84c0.18,-0.17 2.6,-2.52 3.53,-3.43l-0.97 -0.93 0 0c-0.9,0.87 -4.58,4.47 -5.93,5.78l2.35 2.28 0.46 -0.44 1.19 1.15 0.73 -0.72 1.15 1.11z"/>
      <path class="fil1" d="M59.17 165.31l2.34 -2.28 -0.45 -0.45 1.18 -1.16 -0.74 -0.72 1.14 -1.11 -4.17 -4.05 -3.04 2.96 2.14 2.08 1.52 -1.48 -0.73 -0.71 -0.8 0.77 -0.53 -0.51 1.52 -1.49 2.08 2.03 -2.92 2.84c-0.17,-0.17 -2.6,-2.53 -3.52,-3.43l-0.97 0.94 0 0c0.91,0.87 4.6,4.46 5.95,5.77z"/>
      <path class="fil1" d="M53.22 159.54l0 0c0.91,-0.88 4.59,-4.48 5.94,-5.79l-2.35 -2.28 -0.45 0.45 -1.2 -1.16 -0.73 0.72 -1.14 -1.11 -4.17 4.06 3.04 2.96 2.14 -2.08 -1.52 -1.48 -0.73 0.71 0.79 0.78 -0.53 0.52 -1.52 -1.48 2.08 -2.03 2.92 2.84c-0.18,0.17 -2.6,2.53 -3.53,3.43l0.96 0.94z"/>
      <path class="fil1" d="M47.98 163.53l3.04 -2.96 -2.14 -2.08 -1.52 1.48 0.73 0.71 0.8 -0.77 0.53 0.52 -1.52 1.48 -2.08 -2.03 2.92 -2.84c0.17,0.17 2.6,2.53 3.52,3.43l0.96 -0.93 0 0c-0.9,-0.88 -4.59,-4.47 -5.94,-5.78l-2.34 2.29 0.45 0.44 -1.18 1.16 0.74 0.72 -1.14 1.11 4.17 4.05z"/>
     </g>
     <g>
      <path class="fil1" d="M53.17 148.1l4.16 -4.06 -3.04 -2.95 -2.14 2.08 1.52 1.48 0.73 -0.72 -0.79 -0.77 0.53 -0.52 1.52 1.48 -2.08 2.02 -2.92 -2.83c0.18,-0.17 2.6,-2.53 3.53,-3.44l-0.97 -0.93 0 0c-0.9,0.88 -4.58,4.47 -5.93,5.78l2.35 2.28 0.46 -0.44 1.19 1.16 0.73 -0.72 1.15 1.1z"/>
      <path class="fil1" d="M59.17 144.71l2.34 -2.28 -0.45 -0.45 1.18 -1.16 -0.74 -0.71 1.14 -1.11 -4.17 -4.06 -3.04 2.96 2.14 2.08 1.52 -1.48 -0.73 -0.71 -0.8 0.78 -0.53 -0.52 1.52 -1.48 2.08 2.02 -2.92 2.84c-0.17,-0.17 -2.6,-2.53 -3.52,-3.43l-0.97 0.94 0 0c0.91,0.87 4.6,4.46 5.95,5.77z"/>
      <path class="fil1" d="M53.22 138.94l0 0c0.91,-0.88 4.59,-4.47 5.94,-5.79l-2.35 -2.28 -0.45 0.45 -1.2 -1.16 -0.73 0.72 -1.14 -1.11 -4.17 4.06 3.04 2.96 2.14 -2.08 -1.52 -1.48 -0.73 0.71 0.79 0.78 -0.53 0.52 -1.52 -1.48 2.08 -2.03 2.92 2.84c-0.18,0.17 -2.6,2.53 -3.53,3.43l0.96 0.94z"/>
      <path class="fil1" d="M47.98 142.93l3.04 -2.96 -2.14 -2.08 -1.52 1.48 0.73 0.71 0.8 -0.77 0.53 0.52 -1.52 1.48 -2.08 -2.02 2.92 -2.85c0.17,0.17 2.6,2.53 3.52,3.43l0.96 -0.93 0 0c-0.9,-0.88 -4.59,-4.47 -5.94,-5.78l-2.34 2.29 0.45 0.44 -1.18 1.16 0.74 0.72 -1.14 1.11 4.17 4.05z"/>
     </g>
     <g>
      <path class="fil1" d="M31.69 178.79l4.17 -4.06 -3.04 -2.95 -2.14 2.08 1.52 1.48 0.73 -0.72 -0.79 -0.77 0.53 -0.52 1.52 1.48 -2.08 2.02 -2.92 -2.83c0.18,-0.18 2.6,-2.53 3.52,-3.44l-0.96 -0.93 0 0c-0.9,0.87 -4.58,4.47 -5.93,5.78l2.35 2.28 0.45 -0.44 1.19 1.15 0.74 -0.72 1.14 1.11z"/>
      <path class="fil1" d="M37.7 175.4l2.34 -2.28 -0.46 -0.45 1.19 -1.16 -0.74 -0.71 1.14 -1.12 -4.17 -4.05 -3.04 2.96 2.14 2.08 1.52 -1.48 -0.73 -0.71 -0.8 0.77 -0.53 -0.51 1.52 -1.49 2.08 2.03 -2.92 2.84c-0.17,-0.17 -2.6,-2.53 -3.53,-3.43l-0.96 0.94 0 0c0.91,0.87 4.6,4.46 5.95,5.77z"/>
      <path class="fil1" d="M31.75 169.63l0 0c0.91,-0.88 4.59,-4.47 5.94,-5.79l-2.35 -2.28 -0.46 0.45 -1.19 -1.16 -0.74 0.72 -1.14 -1.11 -4.16 4.06 3.04 2.96 2.14 -2.08 -1.52 -1.48 -0.73 0.71 0.79 0.78 -0.53 0.52 -1.52 -1.48 2.08 -2.03 2.91 2.84c-0.17,0.17 -2.59,2.53 -3.52,3.43l0.96 0.94z"/>
      <path class="fil1" d="M26.51 173.62l3.04 -2.96 -2.14 -2.08 -1.52 1.48 0.73 0.71 0.8 -0.77 0.53 0.52 -1.52 1.48 -2.08 -2.03 2.92 -2.84c0.17,0.17 2.59,2.53 3.52,3.43l0.96 -0.93 0 0c-0.9,-0.88 -4.59,-4.47 -5.94,-5.78l-2.34 2.29 0.45 0.44 -1.19 1.16 0.74 0.72 -1.13 1.11 4.17 4.05z"/>
     </g>
     <g>
      <path class="fil1" d="M31.69 199.43l4.17 -4.06 -3.04 -2.95 -2.14 2.08 1.52 1.47 0.73 -0.71 -0.79 -0.77 0.53 -0.52 1.52 1.48 -2.08 2.02 -2.92 -2.84c0.18,-0.17 2.6,-2.52 3.52,-3.43l-0.96 -0.93 0 0c-0.9,0.87 -4.58,4.47 -5.93,5.78l2.35 2.28 0.45 -0.44 1.19 1.15 0.74 -0.72 1.14 1.11z"/>
      <path class="fil1" d="M37.7 196.04l2.34 -2.28 -0.46 -0.45 1.19 -1.16 -0.74 -0.72 1.14 -1.11 -4.17 -4.05 -3.04 2.96 2.14 2.08 1.52 -1.48 -0.73 -0.71 -0.8 0.77 -0.53 -0.51 1.52 -1.49 2.08 2.03 -2.92 2.84c-0.17,-0.17 -2.6,-2.53 -3.53,-3.43l-0.96 0.94 0 0c0.91,0.87 4.6,4.46 5.95,5.77z"/>
      <path class="fil1" d="M31.75 190.27l0 0c0.91,-0.88 4.59,-4.48 5.94,-5.79l-2.35 -2.28 -0.46 0.45 -1.19 -1.16 -0.74 0.72 -1.14 -1.11 -4.16 4.06 3.04 2.96 2.14 -2.08 -1.52 -1.48 -0.73 0.71 0.79 0.78 -0.53 0.52 -1.52 -1.48 2.08 -2.03 2.91 2.84c-0.17,0.17 -2.59,2.53 -3.52,3.43l0.96 0.94z"/>
      <path class="fil1" d="M26.51 194.26l3.04 -2.96 -2.14 -2.08 -1.52 1.48 0.73 0.71 0.8 -0.77 0.53 0.52 -1.52 1.48 -2.08 -2.03 2.92 -2.84c0.17,0.17 2.59,2.53 3.52,3.43l0.96 -0.93 0 0c-0.9,-0.88 -4.59,-4.47 -5.94,-5.78l-2.34 2.29 0.45 0.44 -1.19 1.16 0.74 0.72 -1.13 1.11 4.17 4.05z"/>
     </g>
     <g>
      <path class="fil1" d="M31.69 220.04l4.17 -4.06 -3.04 -2.95 -2.14 2.08 1.52 1.48 0.73 -0.72 -0.79 -0.77 0.53 -0.52 1.52 1.48 -2.08 2.02 -2.92 -2.83c0.18,-0.17 2.6,-2.53 3.52,-3.44l-0.96 -0.93 0 0c-0.9,0.88 -4.58,4.47 -5.93,5.78l2.35 2.28 0.45 -0.44 1.19 1.16 0.74 -0.72 1.14 1.1z"/>
      <path class="fil1" d="M37.7 216.65l2.34 -2.28 -0.46 -0.45 1.19 -1.16 -0.74 -0.71 1.14 -1.11 -4.17 -4.06 -3.04 2.96 2.14 2.08 1.52 -1.48 -0.73 -0.71 -0.8 0.78 -0.53 -0.52 1.52 -1.48 2.08 2.02 -2.92 2.84c-0.17,-0.17 -2.6,-2.53 -3.53,-3.43l-0.96 0.94 0 0c0.91,0.87 4.6,4.46 5.95,5.77z"/>
      <path class="fil1" d="M31.75 210.88l0 0c0.91,-0.88 4.59,-4.47 5.94,-5.79l-2.35 -2.28 -0.46 0.45 -1.19 -1.16 -0.74 0.72 -1.14 -1.11 -4.16 4.06 3.04 2.96 2.14 -2.08 -1.52 -1.48 -0.73 0.71 0.79 0.78 -0.53 0.52 -1.52 -1.48 2.08 -2.03 2.91 2.84c-0.17,0.17 -2.59,2.53 -3.52,3.43l0.96 0.94z"/>
      <path class="fil1" d="M26.51 214.87l3.04 -2.96 -2.14 -2.08 -1.52 1.48 0.73 0.71 0.8 -0.77 0.53 0.52 -1.52 1.48 -2.08 -2.02 2.92 -2.85c0.17,0.17 2.59,2.53 3.52,3.43l0.96 -0.93 0 0c-0.9,-0.88 -4.59,-4.47 -5.94,-5.78l-2.34 2.29 0.45 0.44 -1.19 1.16 0.74 0.72 -1.13 1.11 4.17 4.05z"/>
     </g>
     <g>
      <path class="fil1" d="M11.01 209.98l4.16 -4.06 -3.04 -2.96 -2.14 2.09 1.53 1.47 0.73 -0.71 -0.8 -0.77 0.53 -0.52 1.53 1.48 -2.08 2.02 -2.92 -2.84c0.17,-0.17 2.59,-2.52 3.52,-3.43l-0.96 -0.93 0 0c-0.9,0.87 -4.59,4.47 -5.94,5.78l2.35 2.28 0.46 -0.44 1.19 1.15 0.74 -0.72 1.14 1.11z"/>
      <path class="fil1" d="M17.01 206.59l2.35 -2.28 -0.46 -0.45 1.19 -1.16 -0.74 -0.72 1.14 -1.11 -4.17 -4.05 -3.04 2.96 2.14 2.08 1.51 -1.48 -0.73 -0.71 -0.79 0.77 -0.54 -0.52 1.52 -1.48 2.08 2.03 -2.91 2.84c-0.18,-0.17 -2.6,-2.53 -3.53,-3.43l-0.96 0.94 0 0c0.9,0.87 4.59,4.46 5.94,5.77z"/>
      <path class="fil1" d="M11.07 200.82l0 0c0.9,-0.88 4.59,-4.48 5.93,-5.79l-2.34 -2.28 -0.46 0.45 -1.19 -1.16 -0.74 0.72 -1.14 -1.11 -4.17 4.06 3.05 2.96 2.13 -2.09 -1.52 -1.47 -0.73 0.71 0.8 0.77 -0.54 0.53 -1.52 -1.48 2.08 -2.03 2.92 2.84c-0.17,0.17 -2.59,2.53 -3.52,3.43l0.96 0.94z"/>
      <path class="fil1" d="M5.82 204.81l3.04 -2.96 -2.14 -2.08 -1.52 1.48 0.74 0.71 0.79 -0.77 0.54 0.52 -1.52 1.48 -2.08 -2.03 2.91 -2.84c0.18,0.17 2.6,2.53 3.53,3.43l0.96 -0.93 0 0c-0.9,-0.88 -4.6,-4.47 -5.94,-5.78l-2.35 2.29 0.46 0.44 -1.19 1.16 0.74 0.72 -1.14 1.11 4.17 4.05z"/>
     </g>
     <g>
      <path class="fil1" d="M11.01 189.33l4.16 -4.06 -3.04 -2.96 -2.14 2.09 1.53 1.47 0.73 -0.71 -0.8 -0.77 0.53 -0.52 1.53 1.48 -2.08 2.02 -2.92 -2.84c0.17,-0.17 2.59,-2.53 3.52,-3.43l-0.96 -0.93 0 0c-0.9,0.87 -4.59,4.47 -5.94,5.78l2.35 2.28 0.46 -0.44 1.19 1.15 0.74 -0.72 1.14 1.11z"/>
      <path class="fil1" d="M17.01 185.94l2.35 -2.28 -0.46 -0.45 1.19 -1.16 -0.74 -0.72 1.14 -1.11 -4.17 -4.05 -3.04 2.96 2.14 2.08 1.51 -1.48 -0.73 -0.71 -0.79 0.77 -0.54 -0.52 1.52 -1.48 2.08 2.03 -2.91 2.84c-0.18,-0.17 -2.6,-2.53 -3.53,-3.43l-0.96 0.94 0 0c0.9,0.87 4.59,4.46 5.94,5.77z"/>
      <path class="fil1" d="M11.07 180.17l0 0c0.9,-0.88 4.59,-4.48 5.93,-5.79l-2.34 -2.28 -0.46 0.45 -1.19 -1.16 -0.74 0.72 -1.14 -1.11 -4.17 4.06 3.05 2.96 2.13 -2.09 -1.52 -1.47 -0.73 0.71 0.8 0.77 -0.54 0.52 -1.52 -1.47 2.08 -2.03 2.92 2.84c-0.17,0.17 -2.59,2.53 -3.52,3.43l0.96 0.94z"/>
      <path class="fil1" d="M5.82 184.16l3.04 -2.96 -2.14 -2.08 -1.52 1.48 0.74 0.71 0.79 -0.77 0.54 0.52 -1.52 1.48 -2.08 -2.03 2.91 -2.84c0.18,0.17 2.6,2.53 3.53,3.43l0.96 -0.93 0 0c-0.9,-0.88 -4.6,-4.47 -5.94,-5.78l-2.35 2.28 0.46 0.45 -1.19 1.16 0.74 0.72 -1.14 1.11 4.17 4.05z"/>
     </g>
     <g>
      <path class="fil1" d="M11.01 168.7l4.16 -4.06 -3.04 -2.95 -2.14 2.08 1.53 1.48 0.73 -0.72 -0.8 -0.77 0.53 -0.52 1.53 1.48 -2.08 2.02 -2.92 -2.84c0.17,-0.17 2.59,-2.52 3.52,-3.43l-0.96 -0.93 0 0c-0.9,0.87 -4.59,4.47 -5.94,5.78l2.35 2.28 0.46 -0.44 1.19 1.15 0.74 -0.72 1.14 1.11z"/>
      <path class="fil1" d="M17.01 165.31l2.35 -2.28 -0.46 -0.45 1.19 -1.16 -0.74 -0.72 1.14 -1.11 -4.17 -4.05 -3.04 2.96 2.14 2.08 1.51 -1.48 -0.73 -0.71 -0.79 0.77 -0.54 -0.51 1.52 -1.49 2.08 2.03 -2.91 2.84c-0.18,-0.17 -2.6,-2.53 -3.53,-3.43l-0.96 0.94 0 0c0.9,0.87 4.59,4.46 5.94,5.77z"/>
      <path class="fil1" d="M11.07 159.54l0 0c0.9,-0.88 4.59,-4.48 5.93,-5.79l-2.34 -2.28 -0.46 0.45 -1.19 -1.16 -0.74 0.72 -1.14 -1.11 -4.17 4.06 3.05 2.96 2.13 -2.08 -1.52 -1.48 -0.73 0.71 0.8 0.78 -0.54 0.52 -1.52 -1.48 2.08 -2.03 2.92 2.84c-0.17,0.17 -2.59,2.53 -3.52,3.43l0.96 0.94z"/>
      <path class="fil1" d="M5.82 163.53l3.04 -2.96 -2.14 -2.08 -1.52 1.48 0.74 0.71 0.79 -0.77 0.54 0.52 -1.52 1.48 -2.08 -2.03 2.91 -2.84c0.18,0.17 2.6,2.53 3.53,3.43l0.96 -0.93 0 0c-0.9,-0.88 -4.6,-4.47 -5.94,-5.78l-2.35 2.29 0.46 0.44 -1.19 1.16 0.74 0.72 -1.14 1.11 4.17 4.05z"/>
     </g>
     <g>
      <path class="fil1" d="M11.01 148.1l4.16 -4.06 -3.04 -2.95 -2.14 2.08 1.53 1.48 0.73 -0.72 -0.8 -0.77 0.53 -0.52 1.53 1.48 -2.08 2.02 -2.92 -2.83c0.17,-0.17 2.59,-2.53 3.52,-3.44l-0.96 -0.93 0 0c-0.9,0.88 -4.59,4.47 -5.94,5.78l2.35 2.28 0.46 -0.44 1.19 1.16 0.74 -0.72 1.14 1.1z"/>
      <path class="fil1" d="M17.01 144.71l2.35 -2.28 -0.46 -0.45 1.19 -1.16 -0.74 -0.71 1.14 -1.11 -4.17 -4.06 -3.04 2.96 2.14 2.08 1.51 -1.48 -0.73 -0.71 -0.79 0.78 -0.54 -0.52 1.52 -1.48 2.08 2.02 -2.91 2.84c-0.18,-0.17 -2.6,-2.53 -3.53,-3.43l-0.96 0.94 0 0c0.9,0.87 4.59,4.46 5.94,5.77z"/>
      <path class="fil1" d="M11.07 138.94l0 0c0.9,-0.88 4.59,-4.47 5.93,-5.79l-2.34 -2.28 -0.46 0.45 -1.19 -1.16 -0.74 0.72 -1.14 -1.11 -4.17 4.06 3.05 2.96 2.13 -2.08 -1.52 -1.48 -0.73 0.71 0.8 0.78 -0.54 0.52 -1.52 -1.48 2.08 -2.03 2.92 2.84c-0.17,0.17 -2.59,2.53 -3.52,3.43l0.96 0.94z"/>
      <path class="fil1" d="M5.82 142.93l3.04 -2.96 -2.14 -2.08 -1.52 1.48 0.74 0.71 0.79 -0.77 0.54 0.52 -1.52 1.48 -2.08 -2.02 2.91 -2.85c0.18,0.17 2.6,2.53 3.53,3.43l0.96 -0.93 0 0c-0.9,-0.88 -4.6,-4.47 -5.94,-5.78l-2.35 2.29 0.46 0.44 -1.19 1.16 0.74 0.72 -1.14 1.11 4.17 4.05z"/>
     </g>
     <g>
      <path class="fil1" d="M31.69 158.11l4.17 -4.06 -3.04 -2.96 -2.14 2.09 1.52 1.47 0.73 -0.71 -0.79 -0.77 0.53 -0.52 1.52 1.47 -2.08 2.03 -2.92 -2.84c0.18,-0.17 2.6,-2.53 3.52,-3.43l-0.96 -0.94 0 0c-0.9,0.88 -4.58,4.48 -5.93,5.79l2.35 2.28 0.45 -0.44 1.19 1.15 0.74 -0.72 1.14 1.11z"/>
      <path class="fil1" d="M37.7 154.72l2.34 -2.28 -0.46 -0.45 1.19 -1.16 -0.74 -0.72 1.14 -1.11 -4.17 -4.05 -3.04 2.96 2.14 2.08 1.52 -1.48 -0.73 -0.71 -0.8 0.77 -0.53 -0.52 1.52 -1.48 2.08 2.03 -2.92 2.84c-0.17,-0.17 -2.6,-2.53 -3.53,-3.43l-0.96 0.93 0 0c0.91,0.88 4.6,4.47 5.95,5.78z"/>
      <path class="fil1" d="M31.75 148.94l0 0c0.91,-0.87 4.59,-4.47 5.94,-5.78l-2.35 -2.28 -0.46 0.44 -1.19 -1.15 -0.74 0.72 -1.14 -1.11 -4.16 4.06 3.04 2.96 2.14 -2.09 -1.52 -1.47 -0.73 0.71 0.79 0.77 -0.53 0.52 -1.52 -1.48 2.08 -2.02 2.91 2.84c-0.17,0.17 -2.59,2.53 -3.52,3.43l0.96 0.93z"/>
      <path class="fil1" d="M26.51 152.94l3.04 -2.96 -2.14 -2.08 -1.52 1.48 0.73 0.71 0.8 -0.77 0.53 0.52 -1.52 1.48 -2.08 -2.03 2.92 -2.84c0.17,0.17 2.59,2.53 3.52,3.43l0.96 -0.94 0 0c-0.9,-0.87 -4.59,-4.46 -5.94,-5.77l-2.34 2.28 0.45 0.45 -1.19 1.16 0.74 0.72 -1.13 1.11 4.17 4.05z"/>
     </g>
     <g>
      <path class="fil1" d="M-10.72 178.79l4.16 -4.06 -3.04 -2.95 -2.13 2.08 1.52 1.48 0.73 -0.72 -0.8 -0.77 0.53 -0.52 1.53 1.48 -2.08 2.02 -2.92 -2.83c0.17,-0.18 2.59,-2.53 3.52,-3.44l-0.96 -0.93 0 0c-0.9,0.87 -4.59,4.47 -5.94,5.78l2.35 2.28 0.46 -0.44 1.19 1.15 0.74 -0.72 1.14 1.11z"/>
      <path class="fil1" d="M-4.72 175.4l2.35 -2.28 -0.46 -0.45 1.19 -1.16 -0.74 -0.71 1.14 -1.12 -4.17 -4.05 -3.04 2.96 2.14 2.08 1.51 -1.48 -0.73 -0.71 -0.79 0.77 -0.54 -0.51 1.52 -1.49 2.08 2.03 -2.91 2.84c-0.18,-0.17 -2.6,-2.53 -3.53,-3.43l-0.96 0.94 0 0c0.9,0.87 4.59,4.46 5.94,5.77z"/>
      <path class="fil1" d="M-10.66 169.63l0 0c0.9,-0.88 4.59,-4.47 5.93,-5.79l-2.34 -2.28 -0.46 0.45 -1.19 -1.16 -0.74 0.72 -1.14 -1.11 -4.17 4.06 3.05 2.96 2.13 -2.08 -1.52 -1.48 -0.73 0.71 0.8 0.78 -0.54 0.52 -1.52 -1.48 2.08 -2.03 2.92 2.84c-0.17,0.17 -2.59,2.53 -3.52,3.43l0.96 0.94z"/>
      <path class="fil1" d="M-15.91 173.62l3.04 -2.96 -2.14 -2.08 -1.52 1.48 0.74 0.71 0.79 -0.77 0.54 0.52 -1.52 1.48 -2.08 -2.03 2.91 -2.84c0.18,0.17 2.6,2.53 3.53,3.43l0.96 -0.93 0 0c-0.9,-0.88 -4.6,-4.47 -5.94,-5.78l-2.35 2.29 0.46 0.44 -1.19 1.16 0.74 0.72 -1.14 1.11 4.17 4.05z"/>
     </g>
     <g>
      <path class="fil1" d="M-10.72 199.43l4.16 -4.06 -3.04 -2.95 -2.13 2.08 1.52 1.47 0.73 -0.71 -0.8 -0.77 0.53 -0.52 1.53 1.48 -2.08 2.02 -2.92 -2.84c0.17,-0.17 2.59,-2.52 3.52,-3.43l-0.96 -0.93 0 0c-0.9,0.87 -4.59,4.47 -5.94,5.78l2.35 2.28 0.46 -0.44 1.19 1.15 0.74 -0.72 1.14 1.11z"/>
      <path class="fil1" d="M-4.72 196.04l2.35 -2.28 -0.46 -0.45 1.19 -1.16 -0.74 -0.72 1.14 -1.11 -4.17 -4.05 -3.04 2.96 2.14 2.08 1.51 -1.48 -0.73 -0.71 -0.79 0.77 -0.54 -0.51 1.52 -1.49 2.08 2.03 -2.91 2.84c-0.18,-0.17 -2.6,-2.53 -3.53,-3.43l-0.96 0.94 0 0c0.9,0.87 4.59,4.46 5.94,5.77z"/>
      <path class="fil1" d="M-10.66 190.27l0 0c0.9,-0.88 4.59,-4.48 5.93,-5.79l-2.34 -2.28 -0.46 0.45 -1.19 -1.16 -0.74 0.72 -1.14 -1.11 -4.17 4.06 3.05 2.96 2.13 -2.08 -1.52 -1.48 -0.73 0.71 0.8 0.78 -0.54 0.52 -1.52 -1.48 2.08 -2.03 2.92 2.84c-0.17,0.17 -2.59,2.53 -3.52,3.43l0.96 0.94z"/>
      <path class="fil1" d="M-15.91 194.26l3.04 -2.96 -2.14 -2.08 -1.52 1.48 0.74 0.71 0.79 -0.77 0.54 0.52 -1.52 1.48 -2.08 -2.03 2.91 -2.84c0.18,0.17 2.6,2.53 3.53,3.43l0.96 -0.93 0 0c-0.9,-0.88 -4.6,-4.47 -5.94,-5.78l-2.35 2.29 0.46 0.44 -1.19 1.16 0.74 0.72 -1.14 1.11 4.17 4.05z"/>
     </g>
     <g>
      <path class="fil1" d="M-10.72 220.04l4.16 -4.06 -3.04 -2.95 -2.13 2.08 1.52 1.48 0.73 -0.72 -0.8 -0.77 0.53 -0.52 1.53 1.48 -2.08 2.02 -2.92 -2.83c0.17,-0.17 2.59,-2.53 3.52,-3.44l-0.96 -0.93 0 0c-0.9,0.88 -4.59,4.47 -5.94,5.78l2.35 2.28 0.46 -0.44 1.19 1.16 0.74 -0.72 1.14 1.1z"/>
      <path class="fil1" d="M-4.72 216.65l2.35 -2.28 -0.46 -0.45 1.19 -1.16 -0.74 -0.71 1.14 -1.11 -4.17 -4.06 -3.04 2.96 2.14 2.08 1.51 -1.48 -0.73 -0.71 -0.79 0.78 -0.54 -0.52 1.52 -1.48 2.08 2.02 -2.91 2.84c-0.18,-0.17 -2.6,-2.53 -3.53,-3.43l-0.96 0.94 0 0c0.9,0.87 4.59,4.46 5.94,5.77z"/>
      <path class="fil1" d="M-10.66 210.88l0 0c0.9,-0.88 4.59,-4.47 5.93,-5.79l-2.34 -2.28 -0.46 0.45 -1.19 -1.16 -0.74 0.72 -1.14 -1.11 -4.17 4.06 3.05 2.96 2.13 -2.08 -1.52 -1.48 -0.73 0.71 0.8 0.78 -0.54 0.52 -1.52 -1.48 2.08 -2.03 2.92 2.84c-0.17,0.17 -2.59,2.53 -3.52,3.43l0.96 0.94z"/>
      <path class="fil1" d="M-15.91 214.87l3.04 -2.96 -2.14 -2.08 -1.52 1.48 0.74 0.71 0.79 -0.77 0.54 0.52 -1.52 1.48 -2.08 -2.02 2.91 -2.85c0.18,0.17 2.6,2.53 3.53,3.43l0.96 -0.93 0 0c-0.9,-0.88 -4.6,-4.47 -5.94,-5.78l-2.35 2.29 0.46 0.44 -1.19 1.16 0.74 0.72 -1.14 1.11 4.17 4.05z"/>
     </g>
     <g>
      <path class="fil1" d="M-10.72 158.11l4.16 -4.06 -3.04 -2.96 -2.13 2.09 1.52 1.47 0.73 -0.71 -0.8 -0.77 0.53 -0.52 1.53 1.47 -2.08 2.03 -2.92 -2.84c0.17,-0.17 2.59,-2.53 3.52,-3.43l-0.96 -0.94 0 0c-0.9,0.88 -4.59,4.48 -5.94,5.79l2.35 2.28 0.46 -0.44 1.19 1.15 0.74 -0.72 1.14 1.11z"/>
      <path class="fil1" d="M-4.72 154.72l2.35 -2.28 -0.46 -0.45 1.19 -1.16 -0.74 -0.72 1.14 -1.11 -4.17 -4.05 -3.04 2.96 2.14 2.08 1.51 -1.48 -0.73 -0.71 -0.79 0.77 -0.54 -0.52 1.52 -1.48 2.08 2.03 -2.91 2.84c-0.18,-0.17 -2.6,-2.53 -3.53,-3.43l-0.96 0.93 0 0c0.9,0.88 4.59,4.47 5.94,5.78z"/>
      <path class="fil1" d="M-10.66 148.94l0 0c0.9,-0.87 4.59,-4.47 5.93,-5.78l-2.34 -2.28 -0.46 0.44 -1.19 -1.15 -0.74 0.72 -1.14 -1.11 -4.17 4.06 3.05 2.96 2.13 -2.09 -1.52 -1.47 -0.73 0.71 0.8 0.77 -0.54 0.52 -1.52 -1.48 2.08 -2.02 2.92 2.84c-0.17,0.17 -2.59,2.53 -3.52,3.43l0.96 0.93z"/>
      <path class="fil1" d="M-15.91 152.94l3.04 -2.96 -2.14 -2.08 -1.52 1.48 0.74 0.71 0.79 -0.77 0.54 0.52 -1.52 1.48 -2.08 -2.03 2.91 -2.84c0.18,0.17 2.6,2.53 3.53,3.43l0.96 -0.94 0 0c-0.9,-0.87 -4.6,-4.46 -5.94,-5.77l-2.35 2.28 0.46 0.45 -1.19 1.16 0.74 0.72 -1.14 1.11 4.17 4.05z"/>
     </g>
     <g>
      <path class="fil1" d="M-32.87 209.98l4.16 -4.06 -3.04 -2.96 -2.13 2.09 1.52 1.47 0.73 -0.71 -0.8 -0.77 0.54 -0.52 1.52 1.48 -2.08 2.02 -2.92 -2.84c0.17,-0.17 2.59,-2.52 3.52,-3.43l-0.96 -0.93 0 0c-0.9,0.87 -4.59,4.47 -5.93,5.78l2.34 2.28 0.46 -0.44 1.19 1.15 0.74 -0.72 1.14 1.11z"/>
      <path class="fil1" d="M-26.87 206.59l2.35 -2.28 -0.46 -0.45 1.19 -1.16 -0.74 -0.72 1.14 -1.11 -4.17 -4.05 -3.04 2.96 2.14 2.08 1.52 -1.48 -0.74 -0.71 -0.79 0.77 -0.54 -0.52 1.52 -1.48 2.08 2.03 -2.91 2.84c-0.18,-0.17 -2.6,-2.53 -3.53,-3.43l-0.96 0.94 0 0c0.9,0.87 4.59,4.46 5.94,5.77z"/>
      <path class="fil1" d="M-32.81 200.82l0 0c0.9,-0.88 4.59,-4.48 5.93,-5.79l-2.34 -2.28 -0.46 0.45 -1.19 -1.16 -0.74 0.72 -1.14 -1.11 -4.17 4.06 3.05 2.96 2.13 -2.09 -1.52 -1.47 -0.73 0.71 0.8 0.77 -0.54 0.53 -1.52 -1.48 2.08 -2.03 2.92 2.84c-0.17,0.17 -2.59,2.53 -3.52,3.43l0.96 0.94z"/>
      <path class="fil1" d="M-38.06 204.81l3.04 -2.96 -2.14 -2.08 -1.52 1.48 0.74 0.71 0.79 -0.77 0.54 0.52 -1.52 1.48 -2.08 -2.03 2.91 -2.84c0.18,0.17 2.6,2.53 3.53,3.43l0.96 -0.93 0 0c-0.9,-0.88 -4.6,-4.47 -5.94,-5.78l-2.35 2.29 0.46 0.44 -1.19 1.16 0.74 0.72 -1.14 1.11 4.17 4.05z"/>
     </g>
     <g>
      <path class="fil1" d="M-32.87 189.33l4.16 -4.06 -3.04 -2.96 -2.13 2.09 1.52 1.47 0.73 -0.71 -0.8 -0.77 0.54 -0.52 1.52 1.48 -2.08 2.02 -2.92 -2.84c0.17,-0.17 2.59,-2.53 3.52,-3.43l-0.96 -0.93 0 0c-0.9,0.87 -4.59,4.47 -5.93,5.78l2.34 2.28 0.46 -0.44 1.19 1.15 0.74 -0.72 1.14 1.11z"/>
      <path class="fil1" d="M-26.87 185.94l2.35 -2.28 -0.46 -0.45 1.19 -1.16 -0.74 -0.72 1.14 -1.11 -4.17 -4.05 -3.04 2.96 2.14 2.08 1.52 -1.48 -0.74 -0.71 -0.79 0.77 -0.54 -0.52 1.52 -1.48 2.08 2.03 -2.91 2.84c-0.18,-0.17 -2.6,-2.53 -3.53,-3.43l-0.96 0.94 0 0c0.9,0.87 4.59,4.46 5.94,5.77z"/>
      <path class="fil1" d="M-32.81 180.17l0 0c0.9,-0.88 4.59,-4.48 5.93,-5.79l-2.34 -2.28 -0.46 0.45 -1.19 -1.16 -0.74 0.72 -1.14 -1.11 -4.17 4.06 3.05 2.96 2.13 -2.09 -1.52 -1.47 -0.73 0.71 0.8 0.77 -0.54 0.52 -1.52 -1.47 2.08 -2.03 2.92 2.84c-0.17,0.17 -2.59,2.53 -3.52,3.43l0.96 0.94z"/>
      <path class="fil1" d="M-38.06 184.16l3.04 -2.96 -2.14 -2.08 -1.52 1.48 0.74 0.71 0.79 -0.77 0.54 0.52 -1.52 1.48 -2.08 -2.03 2.91 -2.84c0.18,0.17 2.6,2.53 3.53,3.43l0.96 -0.93 0 0c-0.9,-0.88 -4.6,-4.47 -5.94,-5.78l-2.35 2.28 0.46 0.45 -1.19 1.16 0.74 0.72 -1.14 1.11 4.17 4.05z"/>
     </g>
     <g>
      <path class="fil1" d="M-32.87 168.7l4.16 -4.06 -3.04 -2.95 -2.13 2.08 1.52 1.48 0.73 -0.72 -0.8 -0.77 0.54 -0.52 1.52 1.48 -2.08 2.02 -2.92 -2.84c0.17,-0.17 2.59,-2.52 3.52,-3.43l-0.96 -0.93 0 0c-0.9,0.87 -4.59,4.47 -5.93,5.78l2.34 2.28 0.46 -0.44 1.19 1.15 0.74 -0.72 1.14 1.11z"/>
      <path class="fil1" d="M-26.87 165.31l2.35 -2.28 -0.46 -0.45 1.19 -1.16 -0.74 -0.72 1.14 -1.11 -4.17 -4.05 -3.04 2.96 2.14 2.08 1.52 -1.48 -0.74 -0.71 -0.79 0.77 -0.54 -0.51 1.52 -1.49 2.08 2.03 -2.91 2.84c-0.18,-0.17 -2.6,-2.53 -3.53,-3.43l-0.96 0.94 0 0c0.9,0.87 4.59,4.46 5.94,5.77z"/>
      <path class="fil1" d="M-32.81 159.54l0 0c0.9,-0.88 4.59,-4.48 5.93,-5.79l-2.34 -2.28 -0.46 0.45 -1.19 -1.16 -0.74 0.72 -1.14 -1.11 -4.17 4.06 3.05 2.96 2.13 -2.08 -1.52 -1.48 -0.73 0.71 0.8 0.78 -0.54 0.52 -1.52 -1.48 2.08 -2.03 2.92 2.84c-0.17,0.17 -2.59,2.53 -3.52,3.43l0.96 0.94z"/>
      <path class="fil1" d="M-38.06 163.53l3.04 -2.96 -2.14 -2.08 -1.52 1.48 0.74 0.71 0.79 -0.77 0.54 0.52 -1.52 1.48 -2.08 -2.03 2.91 -2.84c0.18,0.17 2.6,2.53 3.53,3.43l0.96 -0.93 0 0c-0.9,-0.88 -4.6,-4.47 -5.94,-5.78l-2.35 2.29 0.46 0.44 -1.19 1.16 0.74 0.72 -1.14 1.11 4.17 4.05z"/>
     </g>
     <g>
      <path class="fil1" d="M-32.87 148.1l4.16 -4.06 -3.04 -2.95 -2.13 2.08 1.52 1.48 0.73 -0.72 -0.8 -0.77 0.54 -0.52 1.52 1.48 -2.08 2.02 -2.92 -2.83c0.17,-0.17 2.59,-2.53 3.52,-3.44l-0.96 -0.93 0 0c-0.9,0.88 -4.59,4.47 -5.93,5.78l2.34 2.28 0.46 -0.44 1.19 1.16 0.74 -0.72 1.14 1.1z"/>
      <path class="fil1" d="M-26.87 144.71l2.35 -2.28 -0.46 -0.45 1.19 -1.16 -0.74 -0.71 1.14 -1.11 -4.17 -4.06 -3.04 2.96 2.14 2.08 1.52 -1.48 -0.74 -0.71 -0.79 0.78 -0.54 -0.52 1.52 -1.48 2.08 2.02 -2.91 2.84c-0.18,-0.17 -2.6,-2.53 -3.53,-3.43l-0.96 0.94 0 0c0.9,0.87 4.59,4.46 5.94,5.77z"/>
      <path class="fil1" d="M-32.81 138.94l0 0c0.9,-0.88 4.59,-4.47 5.93,-5.79l-2.34 -2.28 -0.46 0.45 -1.19 -1.16 -0.74 0.72 -1.14 -1.11 -4.17 4.06 3.05 2.96 2.13 -2.08 -1.52 -1.48 -0.73 0.71 0.8 0.78 -0.54 0.52 -1.52 -1.48 2.08 -2.03 2.92 2.84c-0.17,0.17 -2.59,2.53 -3.52,3.43l0.96 0.94z"/>
      <path class="fil1" d="M-38.06 142.93l3.04 -2.96 -2.14 -2.08 -1.52 1.48 0.74 0.71 0.79 -0.77 0.54 0.52 -1.52 1.48 -2.08 -2.02 2.91 -2.85c0.18,0.17 2.6,2.53 3.53,3.43l0.96 -0.93 0 0c-0.9,-0.88 -4.6,-4.47 -5.94,-5.78l-2.35 2.29 0.46 0.44 -1.19 1.16 0.74 0.72 -1.14 1.11 4.17 4.05z"/>
     </g>
     <g>
      <path class="fil1" d="M-55.05 178.79l4.16 -4.06 -3.04 -2.95 -2.13 2.08 1.52 1.48 0.73 -0.72 -0.8 -0.77 0.54 -0.52 1.52 1.48 -2.08 2.02 -2.92 -2.83c0.17,-0.18 2.59,-2.53 3.52,-3.44l-0.96 -0.93 0 0c-0.9,0.87 -4.59,4.47 -5.94,5.78l2.35 2.28 0.46 -0.44 1.19 1.15 0.74 -0.72 1.14 1.11z"/>
      <path class="fil1" d="M-49.05 175.4l2.35 -2.28 -0.46 -0.45 1.19 -1.16 -0.74 -0.71 1.14 -1.12 -4.17 -4.05 -3.04 2.96 2.14 2.08 1.51 -1.48 -0.73 -0.71 -0.79 0.77 -0.54 -0.51 1.52 -1.49 2.08 2.03 -2.91 2.84c-0.18,-0.17 -2.6,-2.53 -3.53,-3.43l-0.96 0.94 0 0c0.9,0.87 4.59,4.46 5.94,5.77z"/>
      <path class="fil1" d="M-54.99 169.63l0 0c0.9,-0.88 4.59,-4.47 5.93,-5.79l-2.34 -2.28 -0.46 0.45 -1.19 -1.16 -0.74 0.72 -1.14 -1.11 -4.16 4.06 3.04 2.96 2.13 -2.08 -1.52 -1.48 -0.73 0.71 0.8 0.78 -0.54 0.52 -1.52 -1.48 2.08 -2.03 2.92 2.84c-0.17,0.17 -2.59,2.53 -3.52,3.43l0.96 0.94z"/>
      <path class="fil1" d="M-60.24 173.62l3.04 -2.96 -2.14 -2.08 -1.52 1.48 0.74 0.71 0.79 -0.77 0.54 0.52 -1.52 1.48 -2.08 -2.03 2.91 -2.84c0.18,0.17 2.6,2.53 3.53,3.43l0.96 -0.93 0 0c-0.9,-0.88 -4.59,-4.47 -5.94,-5.78l-2.35 2.29 0.46 0.44 -1.19 1.16 0.74 0.72 -1.14 1.11 4.17 4.05z"/>
     </g>
     <g>
      <path class="fil1" d="M-55.05 199.43l4.16 -4.06 -3.04 -2.95 -2.13 2.08 1.52 1.47 0.73 -0.71 -0.8 -0.77 0.54 -0.52 1.52 1.48 -2.08 2.02 -2.92 -2.84c0.17,-0.17 2.59,-2.52 3.52,-3.43l-0.96 -0.93 0 0c-0.9,0.87 -4.59,4.47 -5.94,5.78l2.35 2.28 0.46 -0.44 1.19 1.15 0.74 -0.72 1.14 1.11z"/>
      <path class="fil1" d="M-49.05 196.04l2.35 -2.28 -0.46 -0.45 1.19 -1.16 -0.74 -0.72 1.14 -1.11 -4.17 -4.05 -3.04 2.96 2.14 2.08 1.51 -1.48 -0.73 -0.71 -0.79 0.77 -0.54 -0.51 1.52 -1.49 2.08 2.03 -2.91 2.84c-0.18,-0.17 -2.6,-2.53 -3.53,-3.43l-0.96 0.94 0 0c0.9,0.87 4.59,4.46 5.94,5.77z"/>
      <path class="fil1" d="M-54.99 190.27l0 0c0.9,-0.88 4.59,-4.48 5.93,-5.79l-2.34 -2.28 -0.46 0.45 -1.19 -1.16 -0.74 0.72 -1.14 -1.11 -4.16 4.06 3.04 2.96 2.13 -2.08 -1.52 -1.48 -0.73 0.71 0.8 0.78 -0.54 0.52 -1.52 -1.48 2.08 -2.03 2.92 2.84c-0.17,0.17 -2.59,2.53 -3.52,3.43l0.96 0.94z"/>
      <path class="fil1" d="M-60.24 194.26l3.04 -2.96 -2.14 -2.08 -1.52 1.48 0.74 0.71 0.79 -0.77 0.54 0.52 -1.52 1.48 -2.08 -2.03 2.91 -2.84c0.18,0.17 2.6,2.53 3.53,3.43l0.96 -0.93 0 0c-0.9,-0.88 -4.59,-4.47 -5.94,-5.78l-2.35 2.29 0.46 0.44 -1.19 1.16 0.74 0.72 -1.14 1.11 4.17 4.05z"/>
     </g>
     <g>
      <path class="fil1" d="M-55.05 220.04l4.16 -4.06 -3.04 -2.95 -2.13 2.08 1.52 1.48 0.73 -0.72 -0.8 -0.77 0.54 -0.52 1.52 1.48 -2.08 2.02 -2.92 -2.83c0.17,-0.17 2.59,-2.53 3.52,-3.44l-0.96 -0.93 0 0c-0.9,0.88 -4.59,4.47 -5.94,5.78l2.35 2.28 0.46 -0.44 1.19 1.16 0.74 -0.72 1.14 1.1z"/>
      <path class="fil1" d="M-49.05 216.65l2.35 -2.28 -0.46 -0.45 1.19 -1.16 -0.74 -0.71 1.14 -1.11 -4.17 -4.06 -3.04 2.96 2.14 2.08 1.51 -1.48 -0.73 -0.71 -0.79 0.78 -0.54 -0.52 1.52 -1.48 2.08 2.02 -2.91 2.84c-0.18,-0.17 -2.6,-2.53 -3.53,-3.43l-0.96 0.94 0 0c0.9,0.87 4.59,4.46 5.94,5.77z"/>
      <path class="fil1" d="M-54.99 210.88l0 0c0.9,-0.88 4.59,-4.47 5.93,-5.79l-2.34 -2.28 -0.46 0.45 -1.19 -1.16 -0.74 0.72 -1.14 -1.11 -4.16 4.06 3.04 2.96 2.13 -2.08 -1.52 -1.48 -0.73 0.71 0.8 0.78 -0.54 0.52 -1.52 -1.48 2.08 -2.03 2.92 2.84c-0.17,0.17 -2.59,2.53 -3.52,3.43l0.96 0.94z"/>
      <path class="fil1" d="M-60.24 214.87l3.04 -2.96 -2.14 -2.08 -1.52 1.48 0.74 0.71 0.79 -0.77 0.54 0.52 -1.52 1.48 -2.08 -2.02 2.91 -2.85c0.18,0.17 2.6,2.53 3.53,3.43l0.96 -0.93 0 0c-0.9,-0.88 -4.59,-4.47 -5.94,-5.78l-2.35 2.29 0.46 0.44 -1.19 1.16 0.74 0.72 -1.14 1.11 4.17 4.05z"/>
     </g>
     <g>
      <path class="fil1" d="M-55.05 158.11l4.16 -4.06 -3.04 -2.96 -2.13 2.09 1.52 1.47 0.73 -0.71 -0.8 -0.77 0.54 -0.52 1.52 1.47 -2.08 2.03 -2.92 -2.84c0.17,-0.17 2.59,-2.53 3.52,-3.43l-0.96 -0.94 0 0c-0.9,0.88 -4.59,4.48 -5.94,5.79l2.35 2.28 0.46 -0.44 1.19 1.15 0.74 -0.72 1.14 1.11z"/>
      <path class="fil1" d="M-49.05 154.72l2.35 -2.28 -0.46 -0.45 1.19 -1.16 -0.74 -0.72 1.14 -1.11 -4.17 -4.05 -3.04 2.96 2.14 2.08 1.51 -1.48 -0.73 -0.71 -0.79 0.77 -0.54 -0.52 1.52 -1.48 2.08 2.03 -2.91 2.84c-0.18,-0.17 -2.6,-2.53 -3.53,-3.43l-0.96 0.93 0 0c0.9,0.88 4.59,4.47 5.94,5.78z"/>
      <path class="fil1" d="M-54.99 148.94l0 0c0.9,-0.87 4.59,-4.47 5.93,-5.78l-2.34 -2.28 -0.46 0.44 -1.19 -1.15 -0.74 0.72 -1.14 -1.11 -4.16 4.06 3.04 2.96 2.13 -2.09 -1.52 -1.47 -0.73 0.71 0.8 0.77 -0.54 0.52 -1.52 -1.48 2.08 -2.02 2.92 2.84c-0.17,0.17 -2.59,2.53 -3.52,3.43l0.96 0.93z"/>
      <path class="fil1" d="M-60.24 152.94l3.04 -2.96 -2.14 -2.08 -1.52 1.48 0.74 0.71 0.79 -0.77 0.54 0.52 -1.52 1.48 -2.08 -2.03 2.91 -2.84c0.18,0.17 2.6,2.53 3.53,3.43l0.96 -0.94 0 0c-0.9,-0.87 -4.59,-4.46 -5.94,-5.77l-2.35 2.28 0.46 0.45 -1.19 1.16 0.74 0.72 -1.14 1.11 4.17 4.05z"/>
     </g>
    </g>
   </g>
   <g style="clip-path:url(#id2)">
    <polygon class="fil2" points="128.1,160.12 0,160.12 0,203.38 128.1,203.38 "/>
    <rect class="fil3" x="114.65" y="192.37" width="23.42" height="26.19"/>
    <path class="fil4" d="M137.89 130.36l-5.05 5.41 -14.51 -12.75 -8.16 8.74 -13.9 -12.23 -46.06 49.31 37.08 32.63 23.62 -25.29 -18.52 -16.3 -8.11 8.66 9.71 8.55 -5.91 6.32 -18.53 -16.31 23 -24.61 35.55 31.29c-1.93,2.07 -28.69,30.72 -38.96,41.7l11.71 10.31c9.97,-10.66 50.74,-54.31 65.64,-70.24l-28.6 -25.19z"/>
   </g>
  </g>
  <polygon class="fil2" points="0,203.38 127.7,203.38 127.7,0 0,0 "/>
  <path class="fil5" d="M74.56 110.11c-0.06,0.16 -0.33,0.4 -0.45,0.57l-0.83 0.86c-0.4,0.42 -0.38,0.32 -0.86,0.79l-1.69 1.66c-0.12,0.07 -0.73,0.74 -0.89,0.89l-1.88 1.87c-0.11,0.17 -0.29,0.37 -0.42,0.51 -0.28,0.3 -0.17,0.35 0.01,0.63l-1.76 0.73c-0.23,0.08 -0.38,0.24 -0.57,0.16 0.03,-0.39 8.43,-8.28 9.34,-8.67zm-44.45 19.06c0.58,-0.18 3.06,-2.72 3.61,-3.28l1.12 -1.07c0.14,-0.13 0.24,-0.12 0.41,-0.31 0.43,-0.44 1.02,-1.04 1.5,-1.41 1.07,-0.84 2.07,-1.85 3.15,-2.66 0.28,-0.21 0.49,-0.49 0.77,-0.68l2.41 -1.93c0.22,-0.12 0.86,-0.55 1.04,-0.71l-0.78 0.99 -6.72 6.48c-0.41,0.4 -2.8,2.88 -0.99,1.8 0.77,-0.62 1.09,-1.19 1.53,-1.59l2.44 -2.28c0.55,-0.48 1.04,-1.02 1.62,-1.48l0.83 -0.78c0.37,-0.38 0.79,-0.63 1.24,-1.1 0.15,-0.15 0.27,-0.2 0.43,-0.34 0.7,-0.63 3.94,-3.36 4.33,-3.46 -0.13,0.43 -0.87,0.83 -1.07,1.18 -0.13,0.1 -0.53,0.54 -0.61,0.69l-1.74 1.67c-0.36,0.39 -1.2,1.07 -1.55,1.4 -0.11,0.11 -0.08,0.13 -0.22,0.25 -0.14,0.13 -0.36,0.32 -0.5,0.45l-0.49 0.47c-0.53,0.51 -1.27,1.08 -1.82,1.67 -0.25,0.27 -0.56,0.43 -0.97,0.99 -0.69,1.6 2.57,-1.51 3.22,-2.12l2.12 -1.77c0.59,-0.5 5.16,-4.26 5.39,-4.32 0.02,0.29 0.02,0.11 -0.13,0.3 -0.11,0.05 -1.62,1.33 -1.78,1.54 -0.32,0.42 -1.3,1.09 -1.67,1.49 -0.24,0.26 -0.56,0.51 -0.83,0.73l-2.51 2.26c-0.23,0.26 -0.71,0.7 -0.6,0.95 0.36,0.82 7.57,-5.91 8.65,-6.7l1.19 -0.96 0.1 0 -0.04 0.1c-1.02,1.29 -2.65,2.74 -3.83,3.98 -0.35,0.45 -2.63,2.61 -2.3,3.06 0.47,0.47 2.36,-1.46 2.78,-1.96 2.99,-2.4 5.71,-5.01 8.8,-7.32 0.18,-0.14 0.07,-0.14 0.31,-0.28 0.31,-0.17 1.14,-0.84 1.37,-0.9l-0.33 0.37c-0.35,0.2 -1.03,1.04 -1.37,1.35l-1.33 1.32c-0.89,0.77 -5.67,5.05 -4.75,6.46 0.2,0.03 0.59,0.07 0.57,-0.2l-0.32 0.01c-0.16,-1.11 2.87,-3.99 3.66,-4.78 1.68,-1.82 3.37,-3.17 5.03,-5.14 0.18,-0.21 0.28,-0.24 0.18,-0.55 -0.39,-0.17 -0.61,0.05 -0.93,0.27 -3.15,2.15 -6.38,4.9 -9.31,7.39 -0.17,0.17 -2.67,2.41 -2.82,2.47 0.09,-0.05 0.15,-0.19 0.22,-0.29 0.56,-0.59 6.83,-7.23 7.2,-7.41 -0.21,-0.52 -0.18,-0.38 -0.64,-0.23 -0.03,0.05 -6.09,4.85 -6.13,4.86 0.4,-0.74 3.95,-3.24 4.56,-4.41l-0.14 -0.26c-0.86,0.04 -4.41,3.09 -5.23,3.74 -0.25,0.2 -1.82,1.42 -1.84,1.55 -0.14,-0.05 -0.1,0.03 -0.09,-0.1l1.43 -1.45 1.3 -1.36c0.18,-0.09 0.39,-0.39 0.54,-0.56 0.22,-0.23 1.22,-1.18 0.29,-1.14 -0.76,0.32 -3.64,2.55 -4.16,3.1l-0.18 -0.04c0.51,-0.59 1.68,-1.55 1.94,-2 -0.23,-0.75 -1.38,0.47 -1.83,0.76 -5.22,3.85 -9.39,8.11 -14.2,12.1 -1.48,1.25 -0.59,1.16 -0.53,1.13zm-11.62 -3.22c-0.29,0 -0.77,0.22 -1.2,0.52 -0.54,0.38 -1.01,0.88 -1,1.23 1.22,1.05 8.87,-4.7 10.26,-5.71 1,-0.88 13.1,-10.04 13.65,-10.21 -0.83,1.26 -6.72,6.35 -8.65,8.05 -0.47,0.41 -2.84,2.61 -3.28,3.1 -3.25,3.11 -6.45,6.29 -9.66,9.44 -0.3,0.47 -1.25,1.3 -1.51,1.64 -0.22,0.29 -0.43,0.3 -0.34,0.68 0.77,0.58 8.82,-6.85 9.4,-7.4 0.53,-0.51 5.24,-4.73 5.41,-4.76 -0.82,0.95 -6.15,6.78 -6.25,7.61 0.26,-0.02 0.59,-0.44 0.76,-0.66 1.57,-1.9 7.22,-7.89 8.05,-9.1 -0.19,-0.54 -0.4,-0.41 -0.82,0.01 -0.63,0.61 -1.51,1.26 -2.18,1.87 -3.58,3.12 -7.22,6.19 -10.65,9.48 -0.13,0.12 -0.96,0.79 -1.2,0.91 -0.1,-0.11 -0.05,0.02 -0.03,-0.18 0.01,0 7.87,-7.92 8.81,-8.67l2.12 -2.08c0.16,-0.16 0.25,-0.17 0.4,-0.33 0.59,-0.64 1.4,-1.27 1.83,-1.75 2.67,-2.51 6.07,-5.3 8.54,-7.9 0.16,-0.17 0.43,-0.42 0.61,-0.59 0.11,-0.1 0.21,-0.22 0.31,-0.3l1.01 -0.82c0.09,-0.08 0.19,-0.21 0.28,-0.28 0.52,-0.39 2.02,-1.66 2.36,-1.85l2.05 -1.55c1.84,-0.96 4.7,-3.37 6.4,-4.68 0.14,-0.12 0.29,-0.29 0.4,-0.38 0.22,-0.17 0.3,-0.12 0.29,-0.45 -0.52,-0.37 -0.59,0 -1.21,0.26 -0.13,0.05 -0.06,0.02 -0.16,0.09 -10.2,7.51 -24.09,18.18 -33.87,24.97 -1.08,0.75 -3.95,1.83 -0.93,-0.21zm50.91 -25.44c-3.39,0.73 4.99,-3.29 5.8,-3.82 0.51,-0.32 1.95,-1.02 2.61,-1.38l3.99 -1.96 4.21 -1.82c0.91,-0.38 5.37,-2.26 6.06,-1.83 0.32,0.83 -22.21,19.45 -24.63,21.65 -1.15,1.05 -2.45,2.34 -3.55,3.3 -0.01,-0.71 -0.24,-1.65 -0.23,-2.41l-0.08 -0.41c0.14,-1.2 0.12,-2.63 0.15,-3.84 0.05,-0.7 0,-0.67 -0.22,-0.85 -0.26,0.06 -0.31,0.11 -0.33,0.38 -0.13,2.68 0.14,5.31 -1.04,7.82 -0.97,2.1 -0.36,1.34 -1.83,2.78 -0.18,0.17 -0.6,0.64 -0.8,0.73 -0.14,-0.21 -0.07,-0.18 -0.1,-0.44l-0.01 -0.2 -0.22 0.03c-0.23,0.84 0.19,0.79 -0.09,1.1l-2.08 2.07c-1.54,1.42 -1.11,1.56 -3.25,2.3 -1.73,0.6 -6.44,2.21 -8.11,3 -7.83,2.92 -15.87,6.66 -23.27,10.5l-3.99 1.88c-0.29,0.12 -0.62,0.15 -0.72,0.44 -0.02,0.7 2.03,-0.37 2.34,-0.48l4.73 -1.91c1.2,-0.52 3.62,-1.4 4.65,-1.94 0.53,-0.27 1.2,-0.5 1.76,-0.73 0.18,-0.08 0.32,-0.18 0.51,-0.26 0.78,-0.32 1.55,-0.67 2.32,-1.01 0.73,-0.32 1.5,-0.76 2.24,-1.04 0.78,-0.29 1.52,-0.71 2.29,-1.02 0.74,-0.3 1.51,-0.69 2.24,-1.02 1.49,-0.68 2.96,-1.4 4.45,-2.04 0.77,-0.34 1.55,-0.67 2.3,-1.03 1.41,-0.67 3.13,-1.44 4.58,-2 0.75,-0.3 1.53,-0.73 2.28,-0.97l-2.41 2.49c-0.38,0.36 -7.02,7.34 -7.16,7.59l-5.77 6.1c-0.2,0.19 -0.29,0.29 -0.47,0.52l-1.42 1.45c-0.25,0.41 -0.84,0.93 -1.17,1.36l-1.16 1.32c-0.88,1.13 -4.36,4.56 -4.65,5.44 -0.06,0.21 0,0.37 0.25,0.34 0.35,-0.04 0.84,-1.08 1.11,-1.38 0.17,-0.18 0.22,-0.11 0.33,-0.31 0.14,-0.26 0.38,-0.48 0.61,-0.68l2.08 -2.27c0.08,-0.08 0.25,-0.41 0.9,-1.02l0.59 -0.66c0.28,-0.38 2.5,-2.78 3,-3.28 0.24,-0.26 0.39,-0.4 0.62,-0.68l1.22 -1.27c0.41,-0.4 0.8,-0.97 1.28,-1.29 1.54,-1.72 3.26,-3.43 4.75,-5.18l1.18 -1.19c0.09,-0.18 5.87,-6.26 6.61,-6.94 0.66,-0.61 0.61,-0.92 1.56,-1.2 0.7,-0.2 1.39,-0.4 2.09,-0.61l2.17 -0.47c0.19,0.19 0.16,0.47 0.62,0.15 0.33,-0.23 0.02,-0.22 0.52,-0.37 0.53,-0.17 1.12,-0.21 1.67,-0.3 0.83,-0.13 2.24,-0.66 2.2,-1.71 -0.03,-0.84 -0.25,-0.68 0.75,-1.03l4.88 -2.08c0.27,-0.08 0.46,-0.16 0.71,-0.27l4.57 -1.87c0.19,-0.08 0.23,-0.04 0.42,-0.11 0.25,-0.1 0.39,-0.21 0.68,-0.29 0.48,-0.12 2.75,-1.13 3.56,-1.38 0.27,-0.08 0.49,-0.17 0.74,-0.28 -0.13,0.71 -0.2,0.83 -0.3,1.49l-0.69 4.31c-0.29,1.83 -26.21,10.28 -25.78,11.83 0.09,0.5 1.36,0.22 1.73,0.12 1.26,-0.32 2.11,-0.51 3.4,-0.91 0.53,-0.17 1,-0.4 1.55,-0.56 0.63,-0.18 2.56,-1.02 3.23,-1.17 0.45,-0.1 1.21,-0.42 1.69,-0.58 0.19,-0.06 0.53,-0.24 0.75,-0.33 0.26,-0.1 0.58,-0.17 0.85,-0.28 1.06,-0.43 2.12,-0.72 3.19,-1.12 2.18,-0.82 4.58,-1.41 6.84,-2.05 0.31,-0.06 0.5,-0.17 0.81,-0.21 0.27,-0.04 0.56,-0.05 0.8,-0.09 1.2,-0.19 1,0.78 1.59,0.41 0.1,-0.3 -0.08,-0.82 -0.15,-1.14 -0.1,-0.4 -0.1,-0.79 -0.14,-1.2 -0.05,-0.54 -0.17,-1.53 0.26,-1.69 9.18,-3.42 17.45,-5.74 27.02,-7.9 0.38,-0.05 0.67,-0.16 1.01,-0.23 0.19,-0.04 0.92,-0.12 0.99,-0.15 0.14,0 0.53,-0.06 0.62,-0.12 -0.08,-0.29 0.01,0.01 -0.1,-0.16 -0.21,-0.31 0,-0.3 -0.42,-0.37 -2.94,-0.24 -28.61,8.21 -29.01,7.85 -0.18,-0.27 0.14,-2.39 0.23,-2.9 0.02,-0.19 0.06,-0.18 0.08,-0.37 0.13,-1.06 0.24,-1.23 0.43,-2.24 0.11,-0.56 0.48,-0.65 0.98,-0.78 0.33,-0.08 0.9,-0.35 1.23,-0.48 1.06,-0.4 2.92,-1.11 3.92,-1.4 2.36,-0.91 4.85,-1.72 7.25,-2.53 0.29,-0.09 0.59,-0.16 0.87,-0.26 0.31,-0.12 0.73,-0.13 0.55,-0.58 -1.31,-0.44 -11.98,4.62 -14.44,4.85 0.21,-1.74 1.71,-5.09 2.51,-6.88 0.42,-0.66 0.31,-0.71 1.05,-1.55 0.21,-0.25 0.79,-0.86 0.47,-1.06 -0.36,-0.06 -0.7,0.42 -0.97,0.67 -0.69,0.63 -1.24,1.25 -1.8,1.98 -0.89,1.17 -2.77,4.05 -3.91,4.72 -0.04,-0.08 -0.03,-0.09 -0.08,-0.21 0.13,-0.27 0.41,-0.48 0.57,-0.71l1.38 -1.89c0.39,-0.43 0.07,-0.65 -0.28,-0.49 -1.08,0.82 -2.03,1.57 -3.07,2.44 -0.15,0.14 -1.13,0.92 -1.27,0.95l0.15 -0.2 0.29 -0.29c0.17,-0.15 0.7,-0.66 0.76,-0.83 0.42,-0.36 0.67,-0.71 1.01,-1.09 0.18,-0.19 0.15,-0.31 0.02,-0.51 -0.27,-0.02 -0.62,0.22 -0.82,0.39 -3.58,2.75 -1.71,1.62 -2.02,1.07 -0.4,-0.11 -1.31,0.65 -1.65,0.91 -0.92,0.7 -1.72,1.38 -2.67,2.06l-2.15 1.84c-0.08,0.08 -0.28,0.2 -0.39,0.29l-1.42 1.27c-0.5,0.44 -0.55,0.42 -1.08,0.95l-1.07 0.95c-0.22,0.21 -1.23,1.23 -1.42,1.26 -0.5,-0.94 -0.48,-1.44 -0.68,-2.09 -0.17,-0.54 -0.02,-0.52 0.35,-0.87 4.81,-4.44 28.4,-23.95 28.16,-25.23 -0.54,-2.85 -25.19,10.19 -25.34,11.25 0.42,0 1.74,0.2 2.11,-0.37zm7.68 13.47l-0.08 -0.02c0.24,-0.39 0.56,-0.7 0.84,-1.01l0.12 -0.14c1.65,-1.88 3.24,-3.68 4.78,-5.67l0.41 -0.52c0.07,-0.09 0.34,-0.49 0.4,-0.59 0.09,-0.17 0.27,-0.38 0.39,-0.54l0.79 -1.04c0.14,0.09 0.18,-0.1 0.06,0.21 -0.01,0.01 -0.08,0.14 -0.1,0.18 -0.07,0.17 -0.13,0.25 -0.18,0.42l-0.26 0.5 -1.6 4.09c-0.16,0.5 -0.31,1.01 -0.47,1.51 -0.3,0.98 -0.02,0.71 -1.59,1.26 -0.22,0.08 -0.47,0.19 -0.71,0.27 -0.94,0.34 -1.86,0.78 -2.8,1.09zm-8.6 3.25c0.13,-0.1 0.41,-0.46 0.56,-0.6 0.21,-0.22 0.4,-0.35 0.56,-0.66 0.39,-0.28 2.1,-2.21 2.44,-2.47l2.98 -2.82c0.19,-0.16 1.25,-0.93 1.32,-1.16 0.37,-0.17 1.03,-0.74 1.2,-1.06 0.25,-0.1 0.18,-0.2 0.43,-0.15 -0.62,0.86 -1.65,1.74 -2.43,2.53 -0.69,0.57 -1.51,1.5 -2.12,2.08 -0.12,0.11 -0.31,0.24 -0.45,0.38l-1.21 1.28c-0.11,0.13 -0.22,0.22 -0.19,0.38 0.06,0.26 -0.03,0.06 0.12,0.19 0.24,0.2 0.87,-0.41 1.02,-0.61 2.11,-2.24 4.72,-4.27 7.16,-6.33 0.18,-0.13 0.27,-0.18 0.42,-0.36l0.49 -0.32c-0.01,0.14 0,0.13 -0.12,0.25 -0.09,0.05 -1.01,1.17 -1.08,1.29 -0.15,0.27 -0.28,0.42 -0.45,0.68 -0.59,0.87 -1.21,1.69 -1.78,2.59 -0.18,0.29 -0.53,0.63 -0.68,0.91 -0.2,0.38 -0.47,0.66 -0.51,1.1 -0.64,0.28 -2.56,0.97 -3.08,1.24 -0.22,0.12 -0.76,0.33 -1.02,0.42 -0.35,0.13 -0.71,0.26 -1.05,0.41l-1.99 0.85c-0.15,0.05 -0.9,0.38 -0.97,0.39 0.12,-0.2 0.33,-0.23 0.43,-0.43zm-6.05 -1.25c0.29,-0.55 0.59,-2.14 0.84,-2.45 0.18,0.41 0.24,1.07 0.25,1.51 -0.2,0.18 -0.9,0.99 -1.09,0.94zm-6.09 14c0.45,-0.56 21.15,-9.02 24.32,-10.09 0.09,0.66 -0.02,0.86 0.03,1.47 0.02,0.25 0.02,0.48 0.05,0.74 0.02,0.23 0.11,0.44 0.07,0.67 -0.89,-0.33 -2.16,0.16 -3.06,0.39l-5.4 1.56c-0.14,0.04 -0.24,0.11 -0.32,0.13l-1.87 0.57c-0.48,0.18 -1.05,0.33 -1.49,0.54 -0.4,0.19 -1.01,0.38 -1.45,0.51 -0.47,0.14 -0.97,0.37 -1.44,0.54 -0.97,0.36 -1.97,0.68 -2.94,1.05 -0.27,0.1 -0.46,0.12 -0.74,0.25l-2.24 0.78c-0.6,0.23 -2.86,0.91 -3.52,0.89zm5.83 -8.46c0.08,-0.36 1.21,-1.31 1.94,-1.61 0.23,-0.1 0.68,-0.31 0.9,-0.35 0.04,0.44 0.13,0.59 -0.14,0.99 -0.12,0.18 -0.17,0.2 -0.32,0.31 -0.29,0.24 -1.88,0.66 -2.38,0.66zm-3.92 0.85c0.09,-0.08 3.38,-1.47 3.6,-1.51 -0.22,0.25 -0.38,0.45 -0.62,0.67 -0.26,0.24 -0.54,0.28 -0.95,0.36 -0.26,0.06 -1.96,0.42 -2.03,0.48zm-1.37 0.02c0.05,-0.21 2.2,-2.29 2.53,-2.62 0.68,0.14 0.59,0.43 1.48,-0.91l0.58 -0.98c0.25,-0.49 0.65,-0.77 1.03,-1.14 0.26,-0.25 0.86,-0.88 1.11,-1.06 0.23,0.25 0.97,2.44 0.7,2.71 -0.84,0.82 -1.16,1.37 -2.07,1.76 -0.71,0.3 -2.72,1.18 -3.34,1.38l-2.02 0.86zm-8.65 3.78c-0.15,0.12 -1.19,0.56 -1.43,0.65 -0.53,0.19 -2.17,1 -2.86,1.3 -1.45,0.63 -2.78,1.31 -4.27,1.95 -0.24,0.1 -0.47,0.25 -0.7,0.33l-5.02 2.26 -3.58 1.6c-0.8,0.26 -3.96,1.56 -4.7,2.05 -0.06,0.04 -0.08,0.06 -0.16,0.07 -0.13,0.01 -0.1,-0.02 -0.13,-0.05 0.83,-1.04 21.88,-10.07 22.85,-10.16z"/>
 </g>
</svg>
